<mxfile host="app.diagrams.net" modified="2024-04-01T01:21:27.149Z" agent="Mozilla/5.0 (X11; Ubuntu; Linux x86_64; rv:123.0) Gecko/20100101 Firefox/123.0" etag="JnTl26p4UdwpCGcTMAtc" version="24.2.1" type="device" pages="7">
  <diagram name="Page-1" id="ufbt7WQxSFpiLJV7qMwO">
    <mxGraphModel dx="1434" dy="760" grid="1" gridSize="10" guides="1" tooltips="1" connect="1" arrows="1" fold="1" page="1" pageScale="1" pageWidth="850" pageHeight="1100" math="0" shadow="0">
      <root>
        <mxCell id="0" />
        <mxCell id="1" parent="0" />
        <mxCell id="s-U8zNdpewVb5o153y0T-1" value="" style="ellipse;whiteSpace=wrap;html=1;aspect=fixed;" vertex="1" parent="1">
          <mxGeometry x="30" y="400" width="160" height="160" as="geometry" />
        </mxCell>
        <mxCell id="s-U8zNdpewVb5o153y0T-16" value="" style="group" vertex="1" connectable="0" parent="1">
          <mxGeometry x="65" y="435" width="90" height="90" as="geometry" />
        </mxCell>
        <mxCell id="s-U8zNdpewVb5o153y0T-5" value="" style="rounded=0;whiteSpace=wrap;html=1;" vertex="1" parent="s-U8zNdpewVb5o153y0T-16">
          <mxGeometry width="30" height="30" as="geometry" />
        </mxCell>
        <mxCell id="s-U8zNdpewVb5o153y0T-6" value="" style="rounded=0;whiteSpace=wrap;html=1;" vertex="1" parent="s-U8zNdpewVb5o153y0T-16">
          <mxGeometry x="30" width="30" height="30" as="geometry" />
        </mxCell>
        <mxCell id="s-U8zNdpewVb5o153y0T-7" value="" style="rounded=0;whiteSpace=wrap;html=1;" vertex="1" parent="s-U8zNdpewVb5o153y0T-16">
          <mxGeometry x="60" width="30" height="30" as="geometry" />
        </mxCell>
        <mxCell id="s-U8zNdpewVb5o153y0T-10" value="" style="rounded=0;whiteSpace=wrap;html=1;" vertex="1" parent="s-U8zNdpewVb5o153y0T-16">
          <mxGeometry y="30" width="30" height="30" as="geometry" />
        </mxCell>
        <mxCell id="s-U8zNdpewVb5o153y0T-11" value="" style="rounded=0;whiteSpace=wrap;html=1;" vertex="1" parent="s-U8zNdpewVb5o153y0T-16">
          <mxGeometry x="30" y="30" width="30" height="30" as="geometry" />
        </mxCell>
        <mxCell id="s-U8zNdpewVb5o153y0T-12" value="" style="rounded=0;whiteSpace=wrap;html=1;" vertex="1" parent="s-U8zNdpewVb5o153y0T-16">
          <mxGeometry x="60" y="30" width="30" height="30" as="geometry" />
        </mxCell>
        <mxCell id="s-U8zNdpewVb5o153y0T-13" value="" style="rounded=0;whiteSpace=wrap;html=1;" vertex="1" parent="s-U8zNdpewVb5o153y0T-16">
          <mxGeometry y="60" width="30" height="30" as="geometry" />
        </mxCell>
        <mxCell id="s-U8zNdpewVb5o153y0T-14" value="" style="rounded=0;whiteSpace=wrap;html=1;" vertex="1" parent="s-U8zNdpewVb5o153y0T-16">
          <mxGeometry x="30" y="60" width="30" height="30" as="geometry" />
        </mxCell>
        <mxCell id="s-U8zNdpewVb5o153y0T-15" value="" style="rounded=0;whiteSpace=wrap;html=1;" vertex="1" parent="s-U8zNdpewVb5o153y0T-16">
          <mxGeometry x="60" y="60" width="30" height="30" as="geometry" />
        </mxCell>
        <mxCell id="AbmOqvc3NyAZbUSKvwJe-1" value="Initial Game State" style="text;html=1;align=center;verticalAlign=middle;whiteSpace=wrap;rounded=0;" vertex="1" parent="1">
          <mxGeometry x="30" y="350" width="60" height="30" as="geometry" />
        </mxCell>
      </root>
    </mxGraphModel>
  </diagram>
  <diagram name="Slide 2" id="j0siHuZQymD3ShWrPoIt">
    <mxGraphModel dx="1434" dy="760" grid="1" gridSize="10" guides="1" tooltips="1" connect="1" arrows="1" fold="1" page="1" pageScale="1" pageWidth="850" pageHeight="1100" math="0" shadow="0">
      <root>
        <mxCell id="T0yUzeBLA_9gCoYENjGh-0" />
        <mxCell id="T0yUzeBLA_9gCoYENjGh-1" parent="T0yUzeBLA_9gCoYENjGh-0" />
        <mxCell id="T0yUzeBLA_9gCoYENjGh-2" value="" style="ellipse;whiteSpace=wrap;html=1;aspect=fixed;" vertex="1" parent="T0yUzeBLA_9gCoYENjGh-1">
          <mxGeometry x="30" y="400" width="160" height="160" as="geometry" />
        </mxCell>
        <mxCell id="T0yUzeBLA_9gCoYENjGh-3" value="" style="group" vertex="1" connectable="0" parent="T0yUzeBLA_9gCoYENjGh-1">
          <mxGeometry x="65" y="435" width="90" height="90" as="geometry" />
        </mxCell>
        <mxCell id="T0yUzeBLA_9gCoYENjGh-4" value="" style="rounded=0;whiteSpace=wrap;html=1;" vertex="1" parent="T0yUzeBLA_9gCoYENjGh-3">
          <mxGeometry width="30" height="30" as="geometry" />
        </mxCell>
        <mxCell id="T0yUzeBLA_9gCoYENjGh-5" value="" style="rounded=0;whiteSpace=wrap;html=1;" vertex="1" parent="T0yUzeBLA_9gCoYENjGh-3">
          <mxGeometry x="30" width="30" height="30" as="geometry" />
        </mxCell>
        <mxCell id="T0yUzeBLA_9gCoYENjGh-6" value="" style="rounded=0;whiteSpace=wrap;html=1;" vertex="1" parent="T0yUzeBLA_9gCoYENjGh-3">
          <mxGeometry x="60" width="30" height="30" as="geometry" />
        </mxCell>
        <mxCell id="T0yUzeBLA_9gCoYENjGh-7" value="" style="rounded=0;whiteSpace=wrap;html=1;" vertex="1" parent="T0yUzeBLA_9gCoYENjGh-3">
          <mxGeometry y="30" width="30" height="30" as="geometry" />
        </mxCell>
        <mxCell id="T0yUzeBLA_9gCoYENjGh-8" value="" style="rounded=0;whiteSpace=wrap;html=1;" vertex="1" parent="T0yUzeBLA_9gCoYENjGh-3">
          <mxGeometry x="30" y="30" width="30" height="30" as="geometry" />
        </mxCell>
        <mxCell id="T0yUzeBLA_9gCoYENjGh-9" value="" style="rounded=0;whiteSpace=wrap;html=1;" vertex="1" parent="T0yUzeBLA_9gCoYENjGh-3">
          <mxGeometry x="60" y="30" width="30" height="30" as="geometry" />
        </mxCell>
        <mxCell id="T0yUzeBLA_9gCoYENjGh-10" value="" style="rounded=0;whiteSpace=wrap;html=1;" vertex="1" parent="T0yUzeBLA_9gCoYENjGh-3">
          <mxGeometry y="60" width="30" height="30" as="geometry" />
        </mxCell>
        <mxCell id="T0yUzeBLA_9gCoYENjGh-11" value="" style="rounded=0;whiteSpace=wrap;html=1;" vertex="1" parent="T0yUzeBLA_9gCoYENjGh-3">
          <mxGeometry x="30" y="60" width="30" height="30" as="geometry" />
        </mxCell>
        <mxCell id="T0yUzeBLA_9gCoYENjGh-12" value="" style="rounded=0;whiteSpace=wrap;html=1;" vertex="1" parent="T0yUzeBLA_9gCoYENjGh-3">
          <mxGeometry x="60" y="60" width="30" height="30" as="geometry" />
        </mxCell>
        <mxCell id="T0yUzeBLA_9gCoYENjGh-13" value="" style="ellipse;whiteSpace=wrap;html=1;aspect=fixed;" vertex="1" parent="T0yUzeBLA_9gCoYENjGh-1">
          <mxGeometry x="270" y="400" width="160" height="160" as="geometry" />
        </mxCell>
        <mxCell id="T0yUzeBLA_9gCoYENjGh-14" value="" style="endArrow=classic;html=1;rounded=0;exitX=1;exitY=0.5;exitDx=0;exitDy=0;entryX=0;entryY=0.5;entryDx=0;entryDy=0;" edge="1" parent="T0yUzeBLA_9gCoYENjGh-1" source="T0yUzeBLA_9gCoYENjGh-2" target="T0yUzeBLA_9gCoYENjGh-13">
          <mxGeometry width="50" height="50" relative="1" as="geometry">
            <mxPoint x="400" y="420" as="sourcePoint" />
            <mxPoint x="450" y="370" as="targetPoint" />
          </mxGeometry>
        </mxCell>
        <mxCell id="T0yUzeBLA_9gCoYENjGh-15" value="" style="group" vertex="1" connectable="0" parent="T0yUzeBLA_9gCoYENjGh-1">
          <mxGeometry x="300" y="440" width="90" height="90" as="geometry" />
        </mxCell>
        <mxCell id="T0yUzeBLA_9gCoYENjGh-16" value="" style="rounded=0;whiteSpace=wrap;html=1;" vertex="1" parent="T0yUzeBLA_9gCoYENjGh-15">
          <mxGeometry width="30" height="30" as="geometry" />
        </mxCell>
        <mxCell id="T0yUzeBLA_9gCoYENjGh-17" value="" style="rounded=0;whiteSpace=wrap;html=1;" vertex="1" parent="T0yUzeBLA_9gCoYENjGh-15">
          <mxGeometry x="30" width="30" height="30" as="geometry" />
        </mxCell>
        <mxCell id="T0yUzeBLA_9gCoYENjGh-18" value="" style="rounded=0;whiteSpace=wrap;html=1;" vertex="1" parent="T0yUzeBLA_9gCoYENjGh-15">
          <mxGeometry x="60" width="30" height="30" as="geometry" />
        </mxCell>
        <mxCell id="T0yUzeBLA_9gCoYENjGh-19" value="" style="rounded=0;whiteSpace=wrap;html=1;" vertex="1" parent="T0yUzeBLA_9gCoYENjGh-15">
          <mxGeometry y="30" width="30" height="30" as="geometry" />
        </mxCell>
        <mxCell id="T0yUzeBLA_9gCoYENjGh-20" value="" style="rounded=0;whiteSpace=wrap;html=1;" vertex="1" parent="T0yUzeBLA_9gCoYENjGh-15">
          <mxGeometry x="30" y="30" width="30" height="30" as="geometry" />
        </mxCell>
        <mxCell id="T0yUzeBLA_9gCoYENjGh-21" value="" style="rounded=0;whiteSpace=wrap;html=1;" vertex="1" parent="T0yUzeBLA_9gCoYENjGh-15">
          <mxGeometry x="60" y="30" width="30" height="30" as="geometry" />
        </mxCell>
        <mxCell id="T0yUzeBLA_9gCoYENjGh-22" value="" style="rounded=0;whiteSpace=wrap;html=1;" vertex="1" parent="T0yUzeBLA_9gCoYENjGh-15">
          <mxGeometry y="60" width="30" height="30" as="geometry" />
        </mxCell>
        <mxCell id="T0yUzeBLA_9gCoYENjGh-23" value="" style="rounded=0;whiteSpace=wrap;html=1;" vertex="1" parent="T0yUzeBLA_9gCoYENjGh-15">
          <mxGeometry x="30" y="60" width="30" height="30" as="geometry" />
        </mxCell>
        <mxCell id="T0yUzeBLA_9gCoYENjGh-24" value="" style="rounded=0;whiteSpace=wrap;html=1;" vertex="1" parent="T0yUzeBLA_9gCoYENjGh-15">
          <mxGeometry x="60" y="60" width="30" height="30" as="geometry" />
        </mxCell>
        <mxCell id="T0yUzeBLA_9gCoYENjGh-25" value="" style="ellipse;whiteSpace=wrap;html=1;aspect=fixed;" vertex="1" parent="T0yUzeBLA_9gCoYENjGh-15">
          <mxGeometry x="35" y="35" width="20" height="20" as="geometry" />
        </mxCell>
      </root>
    </mxGraphModel>
  </diagram>
  <diagram name="Slide 3" id="e3xM0dFq30J4cebgNWFk">
    <mxGraphModel dx="1434" dy="760" grid="1" gridSize="10" guides="1" tooltips="1" connect="1" arrows="1" fold="1" page="1" pageScale="1" pageWidth="850" pageHeight="1100" math="0" shadow="0">
      <root>
        <mxCell id="mYuHPNSpH8qN7QM6j6EZ-0" />
        <mxCell id="mYuHPNSpH8qN7QM6j6EZ-1" parent="mYuHPNSpH8qN7QM6j6EZ-0" />
        <mxCell id="mYuHPNSpH8qN7QM6j6EZ-2" value="" style="ellipse;whiteSpace=wrap;html=1;aspect=fixed;" vertex="1" parent="mYuHPNSpH8qN7QM6j6EZ-1">
          <mxGeometry x="30" y="400" width="160" height="160" as="geometry" />
        </mxCell>
        <mxCell id="mYuHPNSpH8qN7QM6j6EZ-3" value="" style="group" vertex="1" connectable="0" parent="mYuHPNSpH8qN7QM6j6EZ-1">
          <mxGeometry x="65" y="435" width="90" height="90" as="geometry" />
        </mxCell>
        <mxCell id="mYuHPNSpH8qN7QM6j6EZ-4" value="" style="rounded=0;whiteSpace=wrap;html=1;" vertex="1" parent="mYuHPNSpH8qN7QM6j6EZ-3">
          <mxGeometry width="30" height="30" as="geometry" />
        </mxCell>
        <mxCell id="mYuHPNSpH8qN7QM6j6EZ-5" value="" style="rounded=0;whiteSpace=wrap;html=1;" vertex="1" parent="mYuHPNSpH8qN7QM6j6EZ-3">
          <mxGeometry x="30" width="30" height="30" as="geometry" />
        </mxCell>
        <mxCell id="mYuHPNSpH8qN7QM6j6EZ-6" value="" style="rounded=0;whiteSpace=wrap;html=1;" vertex="1" parent="mYuHPNSpH8qN7QM6j6EZ-3">
          <mxGeometry x="60" width="30" height="30" as="geometry" />
        </mxCell>
        <mxCell id="mYuHPNSpH8qN7QM6j6EZ-7" value="" style="rounded=0;whiteSpace=wrap;html=1;" vertex="1" parent="mYuHPNSpH8qN7QM6j6EZ-3">
          <mxGeometry y="30" width="30" height="30" as="geometry" />
        </mxCell>
        <mxCell id="mYuHPNSpH8qN7QM6j6EZ-8" value="" style="rounded=0;whiteSpace=wrap;html=1;" vertex="1" parent="mYuHPNSpH8qN7QM6j6EZ-3">
          <mxGeometry x="30" y="30" width="30" height="30" as="geometry" />
        </mxCell>
        <mxCell id="mYuHPNSpH8qN7QM6j6EZ-9" value="" style="rounded=0;whiteSpace=wrap;html=1;" vertex="1" parent="mYuHPNSpH8qN7QM6j6EZ-3">
          <mxGeometry x="60" y="30" width="30" height="30" as="geometry" />
        </mxCell>
        <mxCell id="mYuHPNSpH8qN7QM6j6EZ-10" value="" style="rounded=0;whiteSpace=wrap;html=1;" vertex="1" parent="mYuHPNSpH8qN7QM6j6EZ-3">
          <mxGeometry y="60" width="30" height="30" as="geometry" />
        </mxCell>
        <mxCell id="mYuHPNSpH8qN7QM6j6EZ-11" value="" style="rounded=0;whiteSpace=wrap;html=1;" vertex="1" parent="mYuHPNSpH8qN7QM6j6EZ-3">
          <mxGeometry x="30" y="60" width="30" height="30" as="geometry" />
        </mxCell>
        <mxCell id="mYuHPNSpH8qN7QM6j6EZ-12" value="" style="rounded=0;whiteSpace=wrap;html=1;" vertex="1" parent="mYuHPNSpH8qN7QM6j6EZ-3">
          <mxGeometry x="60" y="60" width="30" height="30" as="geometry" />
        </mxCell>
        <mxCell id="mYuHPNSpH8qN7QM6j6EZ-13" value="" style="ellipse;whiteSpace=wrap;html=1;aspect=fixed;" vertex="1" parent="mYuHPNSpH8qN7QM6j6EZ-1">
          <mxGeometry x="270" y="400" width="160" height="160" as="geometry" />
        </mxCell>
        <mxCell id="mYuHPNSpH8qN7QM6j6EZ-14" value="" style="endArrow=classic;html=1;rounded=0;exitX=1;exitY=0.5;exitDx=0;exitDy=0;entryX=0;entryY=0.5;entryDx=0;entryDy=0;" edge="1" parent="mYuHPNSpH8qN7QM6j6EZ-1" source="mYuHPNSpH8qN7QM6j6EZ-2" target="mYuHPNSpH8qN7QM6j6EZ-13">
          <mxGeometry width="50" height="50" relative="1" as="geometry">
            <mxPoint x="400" y="420" as="sourcePoint" />
            <mxPoint x="450" y="370" as="targetPoint" />
          </mxGeometry>
        </mxCell>
        <mxCell id="mYuHPNSpH8qN7QM6j6EZ-15" value="" style="group" vertex="1" connectable="0" parent="mYuHPNSpH8qN7QM6j6EZ-1">
          <mxGeometry x="300" y="440" width="90" height="90" as="geometry" />
        </mxCell>
        <mxCell id="mYuHPNSpH8qN7QM6j6EZ-16" value="" style="rounded=0;whiteSpace=wrap;html=1;" vertex="1" parent="mYuHPNSpH8qN7QM6j6EZ-15">
          <mxGeometry width="30" height="30" as="geometry" />
        </mxCell>
        <mxCell id="mYuHPNSpH8qN7QM6j6EZ-17" value="" style="rounded=0;whiteSpace=wrap;html=1;" vertex="1" parent="mYuHPNSpH8qN7QM6j6EZ-15">
          <mxGeometry x="30" width="30" height="30" as="geometry" />
        </mxCell>
        <mxCell id="mYuHPNSpH8qN7QM6j6EZ-18" value="" style="rounded=0;whiteSpace=wrap;html=1;" vertex="1" parent="mYuHPNSpH8qN7QM6j6EZ-15">
          <mxGeometry x="60" width="30" height="30" as="geometry" />
        </mxCell>
        <mxCell id="mYuHPNSpH8qN7QM6j6EZ-19" value="" style="rounded=0;whiteSpace=wrap;html=1;" vertex="1" parent="mYuHPNSpH8qN7QM6j6EZ-15">
          <mxGeometry y="30" width="30" height="30" as="geometry" />
        </mxCell>
        <mxCell id="mYuHPNSpH8qN7QM6j6EZ-20" value="" style="rounded=0;whiteSpace=wrap;html=1;" vertex="1" parent="mYuHPNSpH8qN7QM6j6EZ-15">
          <mxGeometry x="30" y="30" width="30" height="30" as="geometry" />
        </mxCell>
        <mxCell id="mYuHPNSpH8qN7QM6j6EZ-21" value="" style="rounded=0;whiteSpace=wrap;html=1;" vertex="1" parent="mYuHPNSpH8qN7QM6j6EZ-15">
          <mxGeometry x="60" y="30" width="30" height="30" as="geometry" />
        </mxCell>
        <mxCell id="mYuHPNSpH8qN7QM6j6EZ-22" value="" style="rounded=0;whiteSpace=wrap;html=1;" vertex="1" parent="mYuHPNSpH8qN7QM6j6EZ-15">
          <mxGeometry y="60" width="30" height="30" as="geometry" />
        </mxCell>
        <mxCell id="mYuHPNSpH8qN7QM6j6EZ-23" value="" style="rounded=0;whiteSpace=wrap;html=1;" vertex="1" parent="mYuHPNSpH8qN7QM6j6EZ-15">
          <mxGeometry x="30" y="60" width="30" height="30" as="geometry" />
        </mxCell>
        <mxCell id="mYuHPNSpH8qN7QM6j6EZ-24" value="" style="rounded=0;whiteSpace=wrap;html=1;" vertex="1" parent="mYuHPNSpH8qN7QM6j6EZ-15">
          <mxGeometry x="60" y="60" width="30" height="30" as="geometry" />
        </mxCell>
        <mxCell id="mYuHPNSpH8qN7QM6j6EZ-25" value="" style="ellipse;whiteSpace=wrap;html=1;aspect=fixed;" vertex="1" parent="mYuHPNSpH8qN7QM6j6EZ-15">
          <mxGeometry x="35" y="35" width="20" height="20" as="geometry" />
        </mxCell>
        <mxCell id="1jfQw-obuwIu8TAN00Lv-55" value="" style="group" vertex="1" connectable="0" parent="mYuHPNSpH8qN7QM6j6EZ-1">
          <mxGeometry x="430" y="400" width="240" height="160" as="geometry" />
        </mxCell>
        <mxCell id="1jfQw-obuwIu8TAN00Lv-42" value="" style="ellipse;whiteSpace=wrap;html=1;aspect=fixed;" vertex="1" parent="1jfQw-obuwIu8TAN00Lv-55">
          <mxGeometry x="80" width="160" height="160" as="geometry" />
        </mxCell>
        <mxCell id="1jfQw-obuwIu8TAN00Lv-43" value="" style="endArrow=classic;html=1;rounded=0;exitX=1;exitY=0.5;exitDx=0;exitDy=0;entryX=0;entryY=0.5;entryDx=0;entryDy=0;" edge="1" parent="1jfQw-obuwIu8TAN00Lv-55" target="1jfQw-obuwIu8TAN00Lv-42">
          <mxGeometry width="50" height="50" relative="1" as="geometry">
            <mxPoint y="80" as="sourcePoint" />
            <mxPoint x="260" y="-30" as="targetPoint" />
          </mxGeometry>
        </mxCell>
        <mxCell id="1jfQw-obuwIu8TAN00Lv-44" value="" style="group" vertex="1" connectable="0" parent="1jfQw-obuwIu8TAN00Lv-55">
          <mxGeometry x="110" y="40" width="90" height="90" as="geometry" />
        </mxCell>
        <mxCell id="1jfQw-obuwIu8TAN00Lv-45" value="" style="rounded=0;whiteSpace=wrap;html=1;" vertex="1" parent="1jfQw-obuwIu8TAN00Lv-44">
          <mxGeometry width="30" height="30" as="geometry" />
        </mxCell>
        <mxCell id="1jfQw-obuwIu8TAN00Lv-46" value="" style="rounded=0;whiteSpace=wrap;html=1;" vertex="1" parent="1jfQw-obuwIu8TAN00Lv-44">
          <mxGeometry x="30" width="30" height="30" as="geometry" />
        </mxCell>
        <mxCell id="1jfQw-obuwIu8TAN00Lv-47" value="" style="rounded=0;whiteSpace=wrap;html=1;" vertex="1" parent="1jfQw-obuwIu8TAN00Lv-44">
          <mxGeometry x="60" width="30" height="30" as="geometry" />
        </mxCell>
        <mxCell id="1jfQw-obuwIu8TAN00Lv-48" value="" style="rounded=0;whiteSpace=wrap;html=1;" vertex="1" parent="1jfQw-obuwIu8TAN00Lv-44">
          <mxGeometry y="30" width="30" height="30" as="geometry" />
        </mxCell>
        <mxCell id="1jfQw-obuwIu8TAN00Lv-49" value="" style="rounded=0;whiteSpace=wrap;html=1;" vertex="1" parent="1jfQw-obuwIu8TAN00Lv-44">
          <mxGeometry x="30" y="30" width="30" height="30" as="geometry" />
        </mxCell>
        <mxCell id="1jfQw-obuwIu8TAN00Lv-50" value="" style="rounded=0;whiteSpace=wrap;html=1;" vertex="1" parent="1jfQw-obuwIu8TAN00Lv-44">
          <mxGeometry x="60" y="30" width="30" height="30" as="geometry" />
        </mxCell>
        <mxCell id="1jfQw-obuwIu8TAN00Lv-51" value="" style="rounded=0;whiteSpace=wrap;html=1;" vertex="1" parent="1jfQw-obuwIu8TAN00Lv-44">
          <mxGeometry y="60" width="30" height="30" as="geometry" />
        </mxCell>
        <mxCell id="1jfQw-obuwIu8TAN00Lv-52" value="" style="rounded=0;whiteSpace=wrap;html=1;" vertex="1" parent="1jfQw-obuwIu8TAN00Lv-44">
          <mxGeometry x="30" y="60" width="30" height="30" as="geometry" />
        </mxCell>
        <mxCell id="1jfQw-obuwIu8TAN00Lv-53" value="" style="rounded=0;whiteSpace=wrap;html=1;" vertex="1" parent="1jfQw-obuwIu8TAN00Lv-44">
          <mxGeometry x="60" y="60" width="30" height="30" as="geometry" />
        </mxCell>
        <mxCell id="1jfQw-obuwIu8TAN00Lv-54" value="" style="ellipse;whiteSpace=wrap;html=1;aspect=fixed;" vertex="1" parent="1jfQw-obuwIu8TAN00Lv-44">
          <mxGeometry x="35" y="35" width="20" height="20" as="geometry" />
        </mxCell>
        <mxCell id="1jfQw-obuwIu8TAN00Lv-57" value="" style="endArrow=none;html=1;rounded=0;entryX=1;entryY=0;entryDx=0;entryDy=0;exitX=1;exitY=1;exitDx=0;exitDy=0;" edge="1" parent="1jfQw-obuwIu8TAN00Lv-44" source="1jfQw-obuwIu8TAN00Lv-47" target="1jfQw-obuwIu8TAN00Lv-46">
          <mxGeometry width="50" height="50" relative="1" as="geometry">
            <mxPoint x="-140" y="-20" as="sourcePoint" />
            <mxPoint x="-90" y="-70" as="targetPoint" />
          </mxGeometry>
        </mxCell>
        <mxCell id="1jfQw-obuwIu8TAN00Lv-56" value="" style="endArrow=none;html=1;rounded=0;" edge="1" parent="1jfQw-obuwIu8TAN00Lv-55">
          <mxGeometry width="50" height="50" relative="1" as="geometry">
            <mxPoint x="170" y="70" as="sourcePoint" />
            <mxPoint x="200" y="40" as="targetPoint" />
          </mxGeometry>
        </mxCell>
      </root>
    </mxGraphModel>
  </diagram>
  <diagram name="Slide 4" id="LkQ8GzJ1PE_VqhtjP0jO">
    <mxGraphModel dx="1434" dy="760" grid="1" gridSize="10" guides="1" tooltips="1" connect="1" arrows="1" fold="1" page="1" pageScale="1" pageWidth="850" pageHeight="1100" math="0" shadow="0">
      <root>
        <mxCell id="4rh24HFTKldEA6Q64TU2-0" />
        <mxCell id="4rh24HFTKldEA6Q64TU2-1" parent="4rh24HFTKldEA6Q64TU2-0" />
        <mxCell id="4rh24HFTKldEA6Q64TU2-2" value="" style="ellipse;whiteSpace=wrap;html=1;aspect=fixed;" vertex="1" parent="4rh24HFTKldEA6Q64TU2-1">
          <mxGeometry x="30" y="400" width="160" height="160" as="geometry" />
        </mxCell>
        <mxCell id="4rh24HFTKldEA6Q64TU2-3" value="" style="group" vertex="1" connectable="0" parent="4rh24HFTKldEA6Q64TU2-1">
          <mxGeometry x="65" y="435" width="90" height="90" as="geometry" />
        </mxCell>
        <mxCell id="4rh24HFTKldEA6Q64TU2-4" value="" style="rounded=0;whiteSpace=wrap;html=1;" vertex="1" parent="4rh24HFTKldEA6Q64TU2-3">
          <mxGeometry width="30" height="30" as="geometry" />
        </mxCell>
        <mxCell id="4rh24HFTKldEA6Q64TU2-5" value="" style="rounded=0;whiteSpace=wrap;html=1;" vertex="1" parent="4rh24HFTKldEA6Q64TU2-3">
          <mxGeometry x="30" width="30" height="30" as="geometry" />
        </mxCell>
        <mxCell id="4rh24HFTKldEA6Q64TU2-6" value="" style="rounded=0;whiteSpace=wrap;html=1;" vertex="1" parent="4rh24HFTKldEA6Q64TU2-3">
          <mxGeometry x="60" width="30" height="30" as="geometry" />
        </mxCell>
        <mxCell id="4rh24HFTKldEA6Q64TU2-7" value="" style="rounded=0;whiteSpace=wrap;html=1;" vertex="1" parent="4rh24HFTKldEA6Q64TU2-3">
          <mxGeometry y="30" width="30" height="30" as="geometry" />
        </mxCell>
        <mxCell id="4rh24HFTKldEA6Q64TU2-8" value="" style="rounded=0;whiteSpace=wrap;html=1;" vertex="1" parent="4rh24HFTKldEA6Q64TU2-3">
          <mxGeometry x="30" y="30" width="30" height="30" as="geometry" />
        </mxCell>
        <mxCell id="4rh24HFTKldEA6Q64TU2-9" value="" style="rounded=0;whiteSpace=wrap;html=1;" vertex="1" parent="4rh24HFTKldEA6Q64TU2-3">
          <mxGeometry x="60" y="30" width="30" height="30" as="geometry" />
        </mxCell>
        <mxCell id="4rh24HFTKldEA6Q64TU2-10" value="" style="rounded=0;whiteSpace=wrap;html=1;" vertex="1" parent="4rh24HFTKldEA6Q64TU2-3">
          <mxGeometry y="60" width="30" height="30" as="geometry" />
        </mxCell>
        <mxCell id="4rh24HFTKldEA6Q64TU2-11" value="" style="rounded=0;whiteSpace=wrap;html=1;" vertex="1" parent="4rh24HFTKldEA6Q64TU2-3">
          <mxGeometry x="30" y="60" width="30" height="30" as="geometry" />
        </mxCell>
        <mxCell id="4rh24HFTKldEA6Q64TU2-12" value="" style="rounded=0;whiteSpace=wrap;html=1;" vertex="1" parent="4rh24HFTKldEA6Q64TU2-3">
          <mxGeometry x="60" y="60" width="30" height="30" as="geometry" />
        </mxCell>
        <mxCell id="4rh24HFTKldEA6Q64TU2-13" value="" style="ellipse;whiteSpace=wrap;html=1;aspect=fixed;" vertex="1" parent="4rh24HFTKldEA6Q64TU2-1">
          <mxGeometry x="270" y="400" width="160" height="160" as="geometry" />
        </mxCell>
        <mxCell id="4rh24HFTKldEA6Q64TU2-14" value="" style="endArrow=classic;html=1;rounded=0;exitX=1;exitY=0.5;exitDx=0;exitDy=0;entryX=0;entryY=0.5;entryDx=0;entryDy=0;" edge="1" parent="4rh24HFTKldEA6Q64TU2-1" source="4rh24HFTKldEA6Q64TU2-2" target="4rh24HFTKldEA6Q64TU2-13">
          <mxGeometry width="50" height="50" relative="1" as="geometry">
            <mxPoint x="400" y="420" as="sourcePoint" />
            <mxPoint x="450" y="370" as="targetPoint" />
          </mxGeometry>
        </mxCell>
        <mxCell id="4rh24HFTKldEA6Q64TU2-15" value="" style="group" vertex="1" connectable="0" parent="4rh24HFTKldEA6Q64TU2-1">
          <mxGeometry x="300" y="440" width="90" height="90" as="geometry" />
        </mxCell>
        <mxCell id="4rh24HFTKldEA6Q64TU2-16" value="" style="rounded=0;whiteSpace=wrap;html=1;" vertex="1" parent="4rh24HFTKldEA6Q64TU2-15">
          <mxGeometry width="30" height="30" as="geometry" />
        </mxCell>
        <mxCell id="4rh24HFTKldEA6Q64TU2-17" value="" style="rounded=0;whiteSpace=wrap;html=1;" vertex="1" parent="4rh24HFTKldEA6Q64TU2-15">
          <mxGeometry x="30" width="30" height="30" as="geometry" />
        </mxCell>
        <mxCell id="4rh24HFTKldEA6Q64TU2-18" value="" style="rounded=0;whiteSpace=wrap;html=1;" vertex="1" parent="4rh24HFTKldEA6Q64TU2-15">
          <mxGeometry x="60" width="30" height="30" as="geometry" />
        </mxCell>
        <mxCell id="4rh24HFTKldEA6Q64TU2-19" value="" style="rounded=0;whiteSpace=wrap;html=1;" vertex="1" parent="4rh24HFTKldEA6Q64TU2-15">
          <mxGeometry y="30" width="30" height="30" as="geometry" />
        </mxCell>
        <mxCell id="4rh24HFTKldEA6Q64TU2-20" value="" style="rounded=0;whiteSpace=wrap;html=1;" vertex="1" parent="4rh24HFTKldEA6Q64TU2-15">
          <mxGeometry x="30" y="30" width="30" height="30" as="geometry" />
        </mxCell>
        <mxCell id="4rh24HFTKldEA6Q64TU2-21" value="" style="rounded=0;whiteSpace=wrap;html=1;" vertex="1" parent="4rh24HFTKldEA6Q64TU2-15">
          <mxGeometry x="60" y="30" width="30" height="30" as="geometry" />
        </mxCell>
        <mxCell id="4rh24HFTKldEA6Q64TU2-22" value="" style="rounded=0;whiteSpace=wrap;html=1;" vertex="1" parent="4rh24HFTKldEA6Q64TU2-15">
          <mxGeometry y="60" width="30" height="30" as="geometry" />
        </mxCell>
        <mxCell id="4rh24HFTKldEA6Q64TU2-23" value="" style="rounded=0;whiteSpace=wrap;html=1;" vertex="1" parent="4rh24HFTKldEA6Q64TU2-15">
          <mxGeometry x="30" y="60" width="30" height="30" as="geometry" />
        </mxCell>
        <mxCell id="4rh24HFTKldEA6Q64TU2-24" value="" style="rounded=0;whiteSpace=wrap;html=1;" vertex="1" parent="4rh24HFTKldEA6Q64TU2-15">
          <mxGeometry x="60" y="60" width="30" height="30" as="geometry" />
        </mxCell>
        <mxCell id="4rh24HFTKldEA6Q64TU2-25" value="" style="ellipse;whiteSpace=wrap;html=1;aspect=fixed;" vertex="1" parent="4rh24HFTKldEA6Q64TU2-15">
          <mxGeometry x="35" y="35" width="20" height="20" as="geometry" />
        </mxCell>
        <mxCell id="4rh24HFTKldEA6Q64TU2-26" value="" style="group" vertex="1" connectable="0" parent="4rh24HFTKldEA6Q64TU2-1">
          <mxGeometry x="430" y="400" width="240" height="160" as="geometry" />
        </mxCell>
        <mxCell id="SEIUy0WLTKqbZc6F_asv-0" value="" style="group" vertex="1" connectable="0" parent="4rh24HFTKldEA6Q64TU2-26">
          <mxGeometry width="240" height="160" as="geometry" />
        </mxCell>
        <mxCell id="4rh24HFTKldEA6Q64TU2-27" value="" style="ellipse;whiteSpace=wrap;html=1;aspect=fixed;" vertex="1" parent="SEIUy0WLTKqbZc6F_asv-0">
          <mxGeometry x="80" width="160" height="160" as="geometry" />
        </mxCell>
        <mxCell id="4rh24HFTKldEA6Q64TU2-28" value="" style="endArrow=classic;html=1;rounded=0;exitX=1;exitY=0.5;exitDx=0;exitDy=0;entryX=0;entryY=0.5;entryDx=0;entryDy=0;" edge="1" parent="SEIUy0WLTKqbZc6F_asv-0" target="4rh24HFTKldEA6Q64TU2-27">
          <mxGeometry width="50" height="50" relative="1" as="geometry">
            <mxPoint y="80" as="sourcePoint" />
            <mxPoint x="260" y="-30" as="targetPoint" />
          </mxGeometry>
        </mxCell>
        <mxCell id="4rh24HFTKldEA6Q64TU2-29" value="" style="group" vertex="1" connectable="0" parent="SEIUy0WLTKqbZc6F_asv-0">
          <mxGeometry x="110" y="40" width="90" height="90" as="geometry" />
        </mxCell>
        <mxCell id="4rh24HFTKldEA6Q64TU2-30" value="" style="rounded=0;whiteSpace=wrap;html=1;" vertex="1" parent="4rh24HFTKldEA6Q64TU2-29">
          <mxGeometry width="30" height="30" as="geometry" />
        </mxCell>
        <mxCell id="4rh24HFTKldEA6Q64TU2-31" value="" style="rounded=0;whiteSpace=wrap;html=1;" vertex="1" parent="4rh24HFTKldEA6Q64TU2-29">
          <mxGeometry x="30" width="30" height="30" as="geometry" />
        </mxCell>
        <mxCell id="4rh24HFTKldEA6Q64TU2-32" value="" style="rounded=0;whiteSpace=wrap;html=1;" vertex="1" parent="4rh24HFTKldEA6Q64TU2-29">
          <mxGeometry x="60" width="30" height="30" as="geometry" />
        </mxCell>
        <mxCell id="4rh24HFTKldEA6Q64TU2-33" value="" style="rounded=0;whiteSpace=wrap;html=1;" vertex="1" parent="4rh24HFTKldEA6Q64TU2-29">
          <mxGeometry y="30" width="30" height="30" as="geometry" />
        </mxCell>
        <mxCell id="4rh24HFTKldEA6Q64TU2-34" value="" style="rounded=0;whiteSpace=wrap;html=1;" vertex="1" parent="4rh24HFTKldEA6Q64TU2-29">
          <mxGeometry x="30" y="30" width="30" height="30" as="geometry" />
        </mxCell>
        <mxCell id="4rh24HFTKldEA6Q64TU2-35" value="" style="rounded=0;whiteSpace=wrap;html=1;" vertex="1" parent="4rh24HFTKldEA6Q64TU2-29">
          <mxGeometry x="60" y="30" width="30" height="30" as="geometry" />
        </mxCell>
        <mxCell id="4rh24HFTKldEA6Q64TU2-36" value="" style="rounded=0;whiteSpace=wrap;html=1;" vertex="1" parent="4rh24HFTKldEA6Q64TU2-29">
          <mxGeometry y="60" width="30" height="30" as="geometry" />
        </mxCell>
        <mxCell id="4rh24HFTKldEA6Q64TU2-37" value="" style="rounded=0;whiteSpace=wrap;html=1;" vertex="1" parent="4rh24HFTKldEA6Q64TU2-29">
          <mxGeometry x="30" y="60" width="30" height="30" as="geometry" />
        </mxCell>
        <mxCell id="4rh24HFTKldEA6Q64TU2-38" value="" style="rounded=0;whiteSpace=wrap;html=1;" vertex="1" parent="4rh24HFTKldEA6Q64TU2-29">
          <mxGeometry x="60" y="60" width="30" height="30" as="geometry" />
        </mxCell>
        <mxCell id="4rh24HFTKldEA6Q64TU2-39" value="" style="ellipse;whiteSpace=wrap;html=1;aspect=fixed;" vertex="1" parent="4rh24HFTKldEA6Q64TU2-29">
          <mxGeometry x="35" y="35" width="20" height="20" as="geometry" />
        </mxCell>
        <mxCell id="4rh24HFTKldEA6Q64TU2-40" value="" style="endArrow=none;html=1;rounded=0;entryX=1;entryY=0;entryDx=0;entryDy=0;exitX=1;exitY=1;exitDx=0;exitDy=0;" edge="1" parent="4rh24HFTKldEA6Q64TU2-29" source="4rh24HFTKldEA6Q64TU2-32" target="4rh24HFTKldEA6Q64TU2-31">
          <mxGeometry width="50" height="50" relative="1" as="geometry">
            <mxPoint x="-140" y="-20" as="sourcePoint" />
            <mxPoint x="-90" y="-70" as="targetPoint" />
          </mxGeometry>
        </mxCell>
        <mxCell id="4rh24HFTKldEA6Q64TU2-41" value="" style="endArrow=none;html=1;rounded=0;" edge="1" parent="SEIUy0WLTKqbZc6F_asv-0">
          <mxGeometry width="50" height="50" relative="1" as="geometry">
            <mxPoint x="170" y="70" as="sourcePoint" />
            <mxPoint x="200" y="40" as="targetPoint" />
          </mxGeometry>
        </mxCell>
        <mxCell id="SEIUy0WLTKqbZc6F_asv-1" value="" style="group" vertex="1" connectable="0" parent="4rh24HFTKldEA6Q64TU2-1">
          <mxGeometry x="670" y="400" width="240" height="160" as="geometry" />
        </mxCell>
        <mxCell id="SEIUy0WLTKqbZc6F_asv-2" value="" style="ellipse;whiteSpace=wrap;html=1;aspect=fixed;" vertex="1" parent="SEIUy0WLTKqbZc6F_asv-1">
          <mxGeometry x="80" width="160" height="160" as="geometry" />
        </mxCell>
        <mxCell id="SEIUy0WLTKqbZc6F_asv-3" value="" style="endArrow=classic;html=1;rounded=0;exitX=1;exitY=0.5;exitDx=0;exitDy=0;entryX=0;entryY=0.5;entryDx=0;entryDy=0;" edge="1" parent="SEIUy0WLTKqbZc6F_asv-1" target="SEIUy0WLTKqbZc6F_asv-2">
          <mxGeometry width="50" height="50" relative="1" as="geometry">
            <mxPoint y="80" as="sourcePoint" />
            <mxPoint x="260" y="-30" as="targetPoint" />
          </mxGeometry>
        </mxCell>
        <mxCell id="SEIUy0WLTKqbZc6F_asv-4" value="" style="group" vertex="1" connectable="0" parent="SEIUy0WLTKqbZc6F_asv-1">
          <mxGeometry x="110" y="40" width="90" height="90" as="geometry" />
        </mxCell>
        <mxCell id="SEIUy0WLTKqbZc6F_asv-5" value="" style="rounded=0;whiteSpace=wrap;html=1;" vertex="1" parent="SEIUy0WLTKqbZc6F_asv-4">
          <mxGeometry width="30" height="30" as="geometry" />
        </mxCell>
        <mxCell id="SEIUy0WLTKqbZc6F_asv-6" value="" style="rounded=0;whiteSpace=wrap;html=1;" vertex="1" parent="SEIUy0WLTKqbZc6F_asv-4">
          <mxGeometry x="30" width="30" height="30" as="geometry" />
        </mxCell>
        <mxCell id="SEIUy0WLTKqbZc6F_asv-7" value="" style="rounded=0;whiteSpace=wrap;html=1;" vertex="1" parent="SEIUy0WLTKqbZc6F_asv-4">
          <mxGeometry x="60" width="30" height="30" as="geometry" />
        </mxCell>
        <mxCell id="SEIUy0WLTKqbZc6F_asv-8" value="" style="rounded=0;whiteSpace=wrap;html=1;" vertex="1" parent="SEIUy0WLTKqbZc6F_asv-4">
          <mxGeometry y="30" width="30" height="30" as="geometry" />
        </mxCell>
        <mxCell id="SEIUy0WLTKqbZc6F_asv-9" value="" style="rounded=0;whiteSpace=wrap;html=1;" vertex="1" parent="SEIUy0WLTKqbZc6F_asv-4">
          <mxGeometry x="30" y="30" width="30" height="30" as="geometry" />
        </mxCell>
        <mxCell id="SEIUy0WLTKqbZc6F_asv-10" value="" style="rounded=0;whiteSpace=wrap;html=1;" vertex="1" parent="SEIUy0WLTKqbZc6F_asv-4">
          <mxGeometry x="60" y="30" width="30" height="30" as="geometry" />
        </mxCell>
        <mxCell id="SEIUy0WLTKqbZc6F_asv-11" value="" style="rounded=0;whiteSpace=wrap;html=1;" vertex="1" parent="SEIUy0WLTKqbZc6F_asv-4">
          <mxGeometry y="60" width="30" height="30" as="geometry" />
        </mxCell>
        <mxCell id="SEIUy0WLTKqbZc6F_asv-12" value="" style="rounded=0;whiteSpace=wrap;html=1;" vertex="1" parent="SEIUy0WLTKqbZc6F_asv-4">
          <mxGeometry x="30" y="60" width="30" height="30" as="geometry" />
        </mxCell>
        <mxCell id="SEIUy0WLTKqbZc6F_asv-13" value="" style="rounded=0;whiteSpace=wrap;html=1;" vertex="1" parent="SEIUy0WLTKqbZc6F_asv-4">
          <mxGeometry x="60" y="60" width="30" height="30" as="geometry" />
        </mxCell>
        <mxCell id="SEIUy0WLTKqbZc6F_asv-14" value="" style="ellipse;whiteSpace=wrap;html=1;aspect=fixed;" vertex="1" parent="SEIUy0WLTKqbZc6F_asv-4">
          <mxGeometry x="35" y="35" width="20" height="20" as="geometry" />
        </mxCell>
        <mxCell id="SEIUy0WLTKqbZc6F_asv-15" value="" style="endArrow=none;html=1;rounded=0;entryX=1;entryY=0;entryDx=0;entryDy=0;exitX=1;exitY=1;exitDx=0;exitDy=0;" edge="1" parent="SEIUy0WLTKqbZc6F_asv-4" source="SEIUy0WLTKqbZc6F_asv-7" target="SEIUy0WLTKqbZc6F_asv-6">
          <mxGeometry width="50" height="50" relative="1" as="geometry">
            <mxPoint x="-140" y="-20" as="sourcePoint" />
            <mxPoint x="-90" y="-70" as="targetPoint" />
          </mxGeometry>
        </mxCell>
        <mxCell id="SEIUy0WLTKqbZc6F_asv-17" value="" style="ellipse;whiteSpace=wrap;html=1;aspect=fixed;" vertex="1" parent="SEIUy0WLTKqbZc6F_asv-4">
          <mxGeometry x="5" y="5" width="20" height="20" as="geometry" />
        </mxCell>
        <mxCell id="SEIUy0WLTKqbZc6F_asv-16" value="" style="endArrow=none;html=1;rounded=0;" edge="1" parent="SEIUy0WLTKqbZc6F_asv-1">
          <mxGeometry width="50" height="50" relative="1" as="geometry">
            <mxPoint x="170" y="70" as="sourcePoint" />
            <mxPoint x="200" y="40" as="targetPoint" />
          </mxGeometry>
        </mxCell>
      </root>
    </mxGraphModel>
  </diagram>
  <diagram name="Slide 5" id="WUh1GHMIROQsfnyJR2Np">
    <mxGraphModel dx="1434" dy="760" grid="1" gridSize="10" guides="1" tooltips="1" connect="1" arrows="1" fold="1" page="1" pageScale="1" pageWidth="850" pageHeight="1100" math="0" shadow="0">
      <root>
        <mxCell id="DX4QLfD8qgrcXq7xmqJU-0" />
        <mxCell id="DX4QLfD8qgrcXq7xmqJU-1" parent="DX4QLfD8qgrcXq7xmqJU-0" />
        <mxCell id="DX4QLfD8qgrcXq7xmqJU-2" value="" style="ellipse;whiteSpace=wrap;html=1;aspect=fixed;" vertex="1" parent="DX4QLfD8qgrcXq7xmqJU-1">
          <mxGeometry x="30" y="400" width="160" height="160" as="geometry" />
        </mxCell>
        <mxCell id="DX4QLfD8qgrcXq7xmqJU-3" value="" style="group" vertex="1" connectable="0" parent="DX4QLfD8qgrcXq7xmqJU-1">
          <mxGeometry x="65" y="435" width="90" height="90" as="geometry" />
        </mxCell>
        <mxCell id="DX4QLfD8qgrcXq7xmqJU-4" value="" style="rounded=0;whiteSpace=wrap;html=1;" vertex="1" parent="DX4QLfD8qgrcXq7xmqJU-3">
          <mxGeometry width="30" height="30" as="geometry" />
        </mxCell>
        <mxCell id="DX4QLfD8qgrcXq7xmqJU-5" value="" style="rounded=0;whiteSpace=wrap;html=1;" vertex="1" parent="DX4QLfD8qgrcXq7xmqJU-3">
          <mxGeometry x="30" width="30" height="30" as="geometry" />
        </mxCell>
        <mxCell id="DX4QLfD8qgrcXq7xmqJU-6" value="" style="rounded=0;whiteSpace=wrap;html=1;" vertex="1" parent="DX4QLfD8qgrcXq7xmqJU-3">
          <mxGeometry x="60" width="30" height="30" as="geometry" />
        </mxCell>
        <mxCell id="DX4QLfD8qgrcXq7xmqJU-7" value="" style="rounded=0;whiteSpace=wrap;html=1;" vertex="1" parent="DX4QLfD8qgrcXq7xmqJU-3">
          <mxGeometry y="30" width="30" height="30" as="geometry" />
        </mxCell>
        <mxCell id="DX4QLfD8qgrcXq7xmqJU-8" value="" style="rounded=0;whiteSpace=wrap;html=1;" vertex="1" parent="DX4QLfD8qgrcXq7xmqJU-3">
          <mxGeometry x="30" y="30" width="30" height="30" as="geometry" />
        </mxCell>
        <mxCell id="DX4QLfD8qgrcXq7xmqJU-9" value="" style="rounded=0;whiteSpace=wrap;html=1;" vertex="1" parent="DX4QLfD8qgrcXq7xmqJU-3">
          <mxGeometry x="60" y="30" width="30" height="30" as="geometry" />
        </mxCell>
        <mxCell id="DX4QLfD8qgrcXq7xmqJU-10" value="" style="rounded=0;whiteSpace=wrap;html=1;" vertex="1" parent="DX4QLfD8qgrcXq7xmqJU-3">
          <mxGeometry y="60" width="30" height="30" as="geometry" />
        </mxCell>
        <mxCell id="DX4QLfD8qgrcXq7xmqJU-11" value="" style="rounded=0;whiteSpace=wrap;html=1;" vertex="1" parent="DX4QLfD8qgrcXq7xmqJU-3">
          <mxGeometry x="30" y="60" width="30" height="30" as="geometry" />
        </mxCell>
        <mxCell id="DX4QLfD8qgrcXq7xmqJU-12" value="" style="rounded=0;whiteSpace=wrap;html=1;" vertex="1" parent="DX4QLfD8qgrcXq7xmqJU-3">
          <mxGeometry x="60" y="60" width="30" height="30" as="geometry" />
        </mxCell>
        <mxCell id="DX4QLfD8qgrcXq7xmqJU-13" value="" style="ellipse;whiteSpace=wrap;html=1;aspect=fixed;" vertex="1" parent="DX4QLfD8qgrcXq7xmqJU-1">
          <mxGeometry x="270" y="400" width="160" height="160" as="geometry" />
        </mxCell>
        <mxCell id="DX4QLfD8qgrcXq7xmqJU-14" value="" style="endArrow=classic;html=1;rounded=0;exitX=1;exitY=0.5;exitDx=0;exitDy=0;entryX=0;entryY=0.5;entryDx=0;entryDy=0;" edge="1" parent="DX4QLfD8qgrcXq7xmqJU-1" source="DX4QLfD8qgrcXq7xmqJU-2" target="DX4QLfD8qgrcXq7xmqJU-13">
          <mxGeometry width="50" height="50" relative="1" as="geometry">
            <mxPoint x="400" y="420" as="sourcePoint" />
            <mxPoint x="450" y="370" as="targetPoint" />
          </mxGeometry>
        </mxCell>
        <mxCell id="DX4QLfD8qgrcXq7xmqJU-15" value="" style="group" vertex="1" connectable="0" parent="DX4QLfD8qgrcXq7xmqJU-1">
          <mxGeometry x="300" y="440" width="90" height="90" as="geometry" />
        </mxCell>
        <mxCell id="DX4QLfD8qgrcXq7xmqJU-16" value="" style="rounded=0;whiteSpace=wrap;html=1;" vertex="1" parent="DX4QLfD8qgrcXq7xmqJU-15">
          <mxGeometry width="30" height="30" as="geometry" />
        </mxCell>
        <mxCell id="DX4QLfD8qgrcXq7xmqJU-17" value="" style="rounded=0;whiteSpace=wrap;html=1;" vertex="1" parent="DX4QLfD8qgrcXq7xmqJU-15">
          <mxGeometry x="30" width="30" height="30" as="geometry" />
        </mxCell>
        <mxCell id="DX4QLfD8qgrcXq7xmqJU-18" value="" style="rounded=0;whiteSpace=wrap;html=1;" vertex="1" parent="DX4QLfD8qgrcXq7xmqJU-15">
          <mxGeometry x="60" width="30" height="30" as="geometry" />
        </mxCell>
        <mxCell id="DX4QLfD8qgrcXq7xmqJU-19" value="" style="rounded=0;whiteSpace=wrap;html=1;" vertex="1" parent="DX4QLfD8qgrcXq7xmqJU-15">
          <mxGeometry y="30" width="30" height="30" as="geometry" />
        </mxCell>
        <mxCell id="DX4QLfD8qgrcXq7xmqJU-20" value="" style="rounded=0;whiteSpace=wrap;html=1;" vertex="1" parent="DX4QLfD8qgrcXq7xmqJU-15">
          <mxGeometry x="30" y="30" width="30" height="30" as="geometry" />
        </mxCell>
        <mxCell id="DX4QLfD8qgrcXq7xmqJU-21" value="" style="rounded=0;whiteSpace=wrap;html=1;" vertex="1" parent="DX4QLfD8qgrcXq7xmqJU-15">
          <mxGeometry x="60" y="30" width="30" height="30" as="geometry" />
        </mxCell>
        <mxCell id="DX4QLfD8qgrcXq7xmqJU-22" value="" style="rounded=0;whiteSpace=wrap;html=1;" vertex="1" parent="DX4QLfD8qgrcXq7xmqJU-15">
          <mxGeometry y="60" width="30" height="30" as="geometry" />
        </mxCell>
        <mxCell id="DX4QLfD8qgrcXq7xmqJU-23" value="" style="rounded=0;whiteSpace=wrap;html=1;" vertex="1" parent="DX4QLfD8qgrcXq7xmqJU-15">
          <mxGeometry x="30" y="60" width="30" height="30" as="geometry" />
        </mxCell>
        <mxCell id="DX4QLfD8qgrcXq7xmqJU-24" value="" style="rounded=0;whiteSpace=wrap;html=1;" vertex="1" parent="DX4QLfD8qgrcXq7xmqJU-15">
          <mxGeometry x="60" y="60" width="30" height="30" as="geometry" />
        </mxCell>
        <mxCell id="DX4QLfD8qgrcXq7xmqJU-25" value="" style="ellipse;whiteSpace=wrap;html=1;aspect=fixed;" vertex="1" parent="DX4QLfD8qgrcXq7xmqJU-15">
          <mxGeometry x="35" y="35" width="20" height="20" as="geometry" />
        </mxCell>
        <mxCell id="DX4QLfD8qgrcXq7xmqJU-26" value="" style="group" vertex="1" connectable="0" parent="DX4QLfD8qgrcXq7xmqJU-1">
          <mxGeometry x="430" y="400" width="240" height="160" as="geometry" />
        </mxCell>
        <mxCell id="DX4QLfD8qgrcXq7xmqJU-27" value="" style="group" vertex="1" connectable="0" parent="DX4QLfD8qgrcXq7xmqJU-26">
          <mxGeometry width="240" height="160" as="geometry" />
        </mxCell>
        <mxCell id="DX4QLfD8qgrcXq7xmqJU-28" value="" style="ellipse;whiteSpace=wrap;html=1;aspect=fixed;" vertex="1" parent="DX4QLfD8qgrcXq7xmqJU-27">
          <mxGeometry x="80" width="160" height="160" as="geometry" />
        </mxCell>
        <mxCell id="DX4QLfD8qgrcXq7xmqJU-29" value="" style="endArrow=classic;html=1;rounded=0;exitX=1;exitY=0.5;exitDx=0;exitDy=0;entryX=0;entryY=0.5;entryDx=0;entryDy=0;" edge="1" parent="DX4QLfD8qgrcXq7xmqJU-27" target="DX4QLfD8qgrcXq7xmqJU-28">
          <mxGeometry width="50" height="50" relative="1" as="geometry">
            <mxPoint y="80" as="sourcePoint" />
            <mxPoint x="260" y="-30" as="targetPoint" />
          </mxGeometry>
        </mxCell>
        <mxCell id="DX4QLfD8qgrcXq7xmqJU-30" value="" style="group" vertex="1" connectable="0" parent="DX4QLfD8qgrcXq7xmqJU-27">
          <mxGeometry x="110" y="40" width="90" height="90" as="geometry" />
        </mxCell>
        <mxCell id="DX4QLfD8qgrcXq7xmqJU-31" value="" style="rounded=0;whiteSpace=wrap;html=1;" vertex="1" parent="DX4QLfD8qgrcXq7xmqJU-30">
          <mxGeometry width="30" height="30" as="geometry" />
        </mxCell>
        <mxCell id="DX4QLfD8qgrcXq7xmqJU-32" value="" style="rounded=0;whiteSpace=wrap;html=1;" vertex="1" parent="DX4QLfD8qgrcXq7xmqJU-30">
          <mxGeometry x="30" width="30" height="30" as="geometry" />
        </mxCell>
        <mxCell id="DX4QLfD8qgrcXq7xmqJU-33" value="" style="rounded=0;whiteSpace=wrap;html=1;" vertex="1" parent="DX4QLfD8qgrcXq7xmqJU-30">
          <mxGeometry x="60" width="30" height="30" as="geometry" />
        </mxCell>
        <mxCell id="DX4QLfD8qgrcXq7xmqJU-34" value="" style="rounded=0;whiteSpace=wrap;html=1;" vertex="1" parent="DX4QLfD8qgrcXq7xmqJU-30">
          <mxGeometry y="30" width="30" height="30" as="geometry" />
        </mxCell>
        <mxCell id="DX4QLfD8qgrcXq7xmqJU-35" value="" style="rounded=0;whiteSpace=wrap;html=1;" vertex="1" parent="DX4QLfD8qgrcXq7xmqJU-30">
          <mxGeometry x="30" y="30" width="30" height="30" as="geometry" />
        </mxCell>
        <mxCell id="DX4QLfD8qgrcXq7xmqJU-36" value="" style="rounded=0;whiteSpace=wrap;html=1;" vertex="1" parent="DX4QLfD8qgrcXq7xmqJU-30">
          <mxGeometry x="60" y="30" width="30" height="30" as="geometry" />
        </mxCell>
        <mxCell id="DX4QLfD8qgrcXq7xmqJU-37" value="" style="rounded=0;whiteSpace=wrap;html=1;" vertex="1" parent="DX4QLfD8qgrcXq7xmqJU-30">
          <mxGeometry y="60" width="30" height="30" as="geometry" />
        </mxCell>
        <mxCell id="DX4QLfD8qgrcXq7xmqJU-38" value="" style="rounded=0;whiteSpace=wrap;html=1;" vertex="1" parent="DX4QLfD8qgrcXq7xmqJU-30">
          <mxGeometry x="30" y="60" width="30" height="30" as="geometry" />
        </mxCell>
        <mxCell id="DX4QLfD8qgrcXq7xmqJU-39" value="" style="rounded=0;whiteSpace=wrap;html=1;" vertex="1" parent="DX4QLfD8qgrcXq7xmqJU-30">
          <mxGeometry x="60" y="60" width="30" height="30" as="geometry" />
        </mxCell>
        <mxCell id="DX4QLfD8qgrcXq7xmqJU-40" value="" style="ellipse;whiteSpace=wrap;html=1;aspect=fixed;" vertex="1" parent="DX4QLfD8qgrcXq7xmqJU-30">
          <mxGeometry x="35" y="35" width="20" height="20" as="geometry" />
        </mxCell>
        <mxCell id="DX4QLfD8qgrcXq7xmqJU-41" value="" style="endArrow=none;html=1;rounded=0;entryX=1;entryY=0;entryDx=0;entryDy=0;exitX=1;exitY=1;exitDx=0;exitDy=0;" edge="1" parent="DX4QLfD8qgrcXq7xmqJU-30" source="DX4QLfD8qgrcXq7xmqJU-33" target="DX4QLfD8qgrcXq7xmqJU-32">
          <mxGeometry width="50" height="50" relative="1" as="geometry">
            <mxPoint x="-140" y="-20" as="sourcePoint" />
            <mxPoint x="-90" y="-70" as="targetPoint" />
          </mxGeometry>
        </mxCell>
        <mxCell id="DX4QLfD8qgrcXq7xmqJU-42" value="" style="endArrow=none;html=1;rounded=0;" edge="1" parent="DX4QLfD8qgrcXq7xmqJU-27">
          <mxGeometry width="50" height="50" relative="1" as="geometry">
            <mxPoint x="170" y="70" as="sourcePoint" />
            <mxPoint x="200" y="40" as="targetPoint" />
          </mxGeometry>
        </mxCell>
        <mxCell id="DX4QLfD8qgrcXq7xmqJU-43" value="" style="group" vertex="1" connectable="0" parent="DX4QLfD8qgrcXq7xmqJU-1">
          <mxGeometry x="670" y="400" width="240" height="160" as="geometry" />
        </mxCell>
        <mxCell id="DX4QLfD8qgrcXq7xmqJU-44" value="" style="ellipse;whiteSpace=wrap;html=1;aspect=fixed;" vertex="1" parent="DX4QLfD8qgrcXq7xmqJU-43">
          <mxGeometry x="80" width="160" height="160" as="geometry" />
        </mxCell>
        <mxCell id="DX4QLfD8qgrcXq7xmqJU-45" value="" style="endArrow=classic;html=1;rounded=0;exitX=1;exitY=0.5;exitDx=0;exitDy=0;entryX=0;entryY=0.5;entryDx=0;entryDy=0;" edge="1" parent="DX4QLfD8qgrcXq7xmqJU-43" target="DX4QLfD8qgrcXq7xmqJU-44">
          <mxGeometry width="50" height="50" relative="1" as="geometry">
            <mxPoint y="80" as="sourcePoint" />
            <mxPoint x="260" y="-30" as="targetPoint" />
          </mxGeometry>
        </mxCell>
        <mxCell id="DX4QLfD8qgrcXq7xmqJU-46" value="" style="group" vertex="1" connectable="0" parent="DX4QLfD8qgrcXq7xmqJU-43">
          <mxGeometry x="110" y="40" width="90" height="90" as="geometry" />
        </mxCell>
        <mxCell id="DX4QLfD8qgrcXq7xmqJU-47" value="" style="rounded=0;whiteSpace=wrap;html=1;" vertex="1" parent="DX4QLfD8qgrcXq7xmqJU-46">
          <mxGeometry width="30" height="30" as="geometry" />
        </mxCell>
        <mxCell id="DX4QLfD8qgrcXq7xmqJU-48" value="" style="rounded=0;whiteSpace=wrap;html=1;" vertex="1" parent="DX4QLfD8qgrcXq7xmqJU-46">
          <mxGeometry x="30" width="30" height="30" as="geometry" />
        </mxCell>
        <mxCell id="DX4QLfD8qgrcXq7xmqJU-49" value="" style="rounded=0;whiteSpace=wrap;html=1;" vertex="1" parent="DX4QLfD8qgrcXq7xmqJU-46">
          <mxGeometry x="60" width="30" height="30" as="geometry" />
        </mxCell>
        <mxCell id="DX4QLfD8qgrcXq7xmqJU-50" value="" style="rounded=0;whiteSpace=wrap;html=1;" vertex="1" parent="DX4QLfD8qgrcXq7xmqJU-46">
          <mxGeometry y="30" width="30" height="30" as="geometry" />
        </mxCell>
        <mxCell id="DX4QLfD8qgrcXq7xmqJU-51" value="" style="rounded=0;whiteSpace=wrap;html=1;" vertex="1" parent="DX4QLfD8qgrcXq7xmqJU-46">
          <mxGeometry x="30" y="30" width="30" height="30" as="geometry" />
        </mxCell>
        <mxCell id="DX4QLfD8qgrcXq7xmqJU-52" value="" style="rounded=0;whiteSpace=wrap;html=1;" vertex="1" parent="DX4QLfD8qgrcXq7xmqJU-46">
          <mxGeometry x="60" y="30" width="30" height="30" as="geometry" />
        </mxCell>
        <mxCell id="DX4QLfD8qgrcXq7xmqJU-53" value="" style="rounded=0;whiteSpace=wrap;html=1;" vertex="1" parent="DX4QLfD8qgrcXq7xmqJU-46">
          <mxGeometry y="60" width="30" height="30" as="geometry" />
        </mxCell>
        <mxCell id="DX4QLfD8qgrcXq7xmqJU-54" value="" style="rounded=0;whiteSpace=wrap;html=1;" vertex="1" parent="DX4QLfD8qgrcXq7xmqJU-46">
          <mxGeometry x="30" y="60" width="30" height="30" as="geometry" />
        </mxCell>
        <mxCell id="DX4QLfD8qgrcXq7xmqJU-55" value="" style="rounded=0;whiteSpace=wrap;html=1;" vertex="1" parent="DX4QLfD8qgrcXq7xmqJU-46">
          <mxGeometry x="60" y="60" width="30" height="30" as="geometry" />
        </mxCell>
        <mxCell id="DX4QLfD8qgrcXq7xmqJU-56" value="" style="ellipse;whiteSpace=wrap;html=1;aspect=fixed;" vertex="1" parent="DX4QLfD8qgrcXq7xmqJU-46">
          <mxGeometry x="35" y="35" width="20" height="20" as="geometry" />
        </mxCell>
        <mxCell id="DX4QLfD8qgrcXq7xmqJU-57" value="" style="endArrow=none;html=1;rounded=0;entryX=1;entryY=0;entryDx=0;entryDy=0;exitX=1;exitY=1;exitDx=0;exitDy=0;" edge="1" parent="DX4QLfD8qgrcXq7xmqJU-46" source="DX4QLfD8qgrcXq7xmqJU-49" target="DX4QLfD8qgrcXq7xmqJU-48">
          <mxGeometry width="50" height="50" relative="1" as="geometry">
            <mxPoint x="-140" y="-20" as="sourcePoint" />
            <mxPoint x="-90" y="-70" as="targetPoint" />
          </mxGeometry>
        </mxCell>
        <mxCell id="DX4QLfD8qgrcXq7xmqJU-58" value="" style="ellipse;whiteSpace=wrap;html=1;aspect=fixed;" vertex="1" parent="DX4QLfD8qgrcXq7xmqJU-46">
          <mxGeometry x="5" y="5" width="20" height="20" as="geometry" />
        </mxCell>
        <mxCell id="DX4QLfD8qgrcXq7xmqJU-59" value="" style="endArrow=none;html=1;rounded=0;" edge="1" parent="DX4QLfD8qgrcXq7xmqJU-43">
          <mxGeometry width="50" height="50" relative="1" as="geometry">
            <mxPoint x="170" y="70" as="sourcePoint" />
            <mxPoint x="200" y="40" as="targetPoint" />
          </mxGeometry>
        </mxCell>
        <mxCell id="qYx0ZtYVSz0mhTBKrH2l-16" value="" style="group" vertex="1" connectable="0" parent="DX4QLfD8qgrcXq7xmqJU-1">
          <mxGeometry x="910" y="400" width="240" height="160" as="geometry" />
        </mxCell>
        <mxCell id="qYx0ZtYVSz0mhTBKrH2l-0" value="" style="ellipse;whiteSpace=wrap;html=1;aspect=fixed;" vertex="1" parent="qYx0ZtYVSz0mhTBKrH2l-16">
          <mxGeometry x="80" width="160" height="160" as="geometry" />
        </mxCell>
        <mxCell id="qYx0ZtYVSz0mhTBKrH2l-1" value="" style="endArrow=classic;html=1;rounded=0;exitX=1;exitY=0.5;exitDx=0;exitDy=0;entryX=0;entryY=0.5;entryDx=0;entryDy=0;" edge="1" parent="qYx0ZtYVSz0mhTBKrH2l-16" target="qYx0ZtYVSz0mhTBKrH2l-0">
          <mxGeometry width="50" height="50" relative="1" as="geometry">
            <mxPoint y="80" as="sourcePoint" />
            <mxPoint x="260" y="-30" as="targetPoint" />
          </mxGeometry>
        </mxCell>
        <mxCell id="qYx0ZtYVSz0mhTBKrH2l-2" value="" style="group" vertex="1" connectable="0" parent="qYx0ZtYVSz0mhTBKrH2l-16">
          <mxGeometry x="110" y="40" width="90" height="90" as="geometry" />
        </mxCell>
        <mxCell id="qYx0ZtYVSz0mhTBKrH2l-3" value="" style="rounded=0;whiteSpace=wrap;html=1;" vertex="1" parent="qYx0ZtYVSz0mhTBKrH2l-2">
          <mxGeometry width="30" height="30" as="geometry" />
        </mxCell>
        <mxCell id="qYx0ZtYVSz0mhTBKrH2l-4" value="" style="rounded=0;whiteSpace=wrap;html=1;" vertex="1" parent="qYx0ZtYVSz0mhTBKrH2l-2">
          <mxGeometry x="30" width="30" height="30" as="geometry" />
        </mxCell>
        <mxCell id="qYx0ZtYVSz0mhTBKrH2l-5" value="" style="rounded=0;whiteSpace=wrap;html=1;" vertex="1" parent="qYx0ZtYVSz0mhTBKrH2l-2">
          <mxGeometry x="60" width="30" height="30" as="geometry" />
        </mxCell>
        <mxCell id="qYx0ZtYVSz0mhTBKrH2l-6" value="" style="rounded=0;whiteSpace=wrap;html=1;" vertex="1" parent="qYx0ZtYVSz0mhTBKrH2l-2">
          <mxGeometry y="30" width="30" height="30" as="geometry" />
        </mxCell>
        <mxCell id="qYx0ZtYVSz0mhTBKrH2l-7" value="" style="rounded=0;whiteSpace=wrap;html=1;" vertex="1" parent="qYx0ZtYVSz0mhTBKrH2l-2">
          <mxGeometry x="30" y="30" width="30" height="30" as="geometry" />
        </mxCell>
        <mxCell id="qYx0ZtYVSz0mhTBKrH2l-8" value="" style="rounded=0;whiteSpace=wrap;html=1;" vertex="1" parent="qYx0ZtYVSz0mhTBKrH2l-2">
          <mxGeometry x="60" y="30" width="30" height="30" as="geometry" />
        </mxCell>
        <mxCell id="qYx0ZtYVSz0mhTBKrH2l-9" value="" style="rounded=0;whiteSpace=wrap;html=1;" vertex="1" parent="qYx0ZtYVSz0mhTBKrH2l-2">
          <mxGeometry y="60" width="30" height="30" as="geometry" />
        </mxCell>
        <mxCell id="qYx0ZtYVSz0mhTBKrH2l-10" value="" style="rounded=0;whiteSpace=wrap;html=1;" vertex="1" parent="qYx0ZtYVSz0mhTBKrH2l-2">
          <mxGeometry x="30" y="60" width="30" height="30" as="geometry" />
        </mxCell>
        <mxCell id="qYx0ZtYVSz0mhTBKrH2l-11" value="" style="rounded=0;whiteSpace=wrap;html=1;" vertex="1" parent="qYx0ZtYVSz0mhTBKrH2l-2">
          <mxGeometry x="60" y="60" width="30" height="30" as="geometry" />
        </mxCell>
        <mxCell id="qYx0ZtYVSz0mhTBKrH2l-12" value="" style="ellipse;whiteSpace=wrap;html=1;aspect=fixed;" vertex="1" parent="qYx0ZtYVSz0mhTBKrH2l-2">
          <mxGeometry x="35" y="35" width="20" height="20" as="geometry" />
        </mxCell>
        <mxCell id="qYx0ZtYVSz0mhTBKrH2l-13" value="" style="endArrow=none;html=1;rounded=0;entryX=1;entryY=0;entryDx=0;entryDy=0;exitX=1;exitY=1;exitDx=0;exitDy=0;" edge="1" parent="qYx0ZtYVSz0mhTBKrH2l-2" source="qYx0ZtYVSz0mhTBKrH2l-5" target="qYx0ZtYVSz0mhTBKrH2l-4">
          <mxGeometry width="50" height="50" relative="1" as="geometry">
            <mxPoint x="-140" y="-20" as="sourcePoint" />
            <mxPoint x="-90" y="-70" as="targetPoint" />
          </mxGeometry>
        </mxCell>
        <mxCell id="qYx0ZtYVSz0mhTBKrH2l-14" value="" style="ellipse;whiteSpace=wrap;html=1;aspect=fixed;" vertex="1" parent="qYx0ZtYVSz0mhTBKrH2l-2">
          <mxGeometry x="5" y="5" width="20" height="20" as="geometry" />
        </mxCell>
        <mxCell id="qYx0ZtYVSz0mhTBKrH2l-17" value="" style="endArrow=none;html=1;rounded=0;entryX=1;entryY=0;entryDx=0;entryDy=0;exitX=1;exitY=1;exitDx=0;exitDy=0;" edge="1" parent="qYx0ZtYVSz0mhTBKrH2l-2" source="qYx0ZtYVSz0mhTBKrH2l-11" target="qYx0ZtYVSz0mhTBKrH2l-10">
          <mxGeometry width="50" height="50" relative="1" as="geometry">
            <mxPoint x="-310" y="-20" as="sourcePoint" />
            <mxPoint x="-260" y="-70" as="targetPoint" />
          </mxGeometry>
        </mxCell>
        <mxCell id="qYx0ZtYVSz0mhTBKrH2l-18" value="" style="endArrow=none;html=1;rounded=0;entryX=1;entryY=0;entryDx=0;entryDy=0;exitX=0;exitY=1;exitDx=0;exitDy=0;" edge="1" parent="qYx0ZtYVSz0mhTBKrH2l-2" source="qYx0ZtYVSz0mhTBKrH2l-11" target="qYx0ZtYVSz0mhTBKrH2l-11">
          <mxGeometry width="50" height="50" relative="1" as="geometry">
            <mxPoint x="-310" y="-20" as="sourcePoint" />
            <mxPoint x="-260" y="-70" as="targetPoint" />
          </mxGeometry>
        </mxCell>
        <mxCell id="qYx0ZtYVSz0mhTBKrH2l-15" value="" style="endArrow=none;html=1;rounded=0;" edge="1" parent="qYx0ZtYVSz0mhTBKrH2l-16">
          <mxGeometry width="50" height="50" relative="1" as="geometry">
            <mxPoint x="170" y="70" as="sourcePoint" />
            <mxPoint x="200" y="40" as="targetPoint" />
          </mxGeometry>
        </mxCell>
      </root>
    </mxGraphModel>
  </diagram>
  <diagram name="Slide 6" id="rbAg32vCbFJa6If598km">
    <mxGraphModel dx="1434" dy="760" grid="1" gridSize="10" guides="1" tooltips="1" connect="1" arrows="1" fold="1" page="1" pageScale="1" pageWidth="850" pageHeight="1100" math="0" shadow="0">
      <root>
        <mxCell id="a88mkTN01ER_nGAuFpFG-0" />
        <mxCell id="a88mkTN01ER_nGAuFpFG-1" parent="a88mkTN01ER_nGAuFpFG-0" />
        <mxCell id="a88mkTN01ER_nGAuFpFG-2" value="" style="ellipse;whiteSpace=wrap;html=1;aspect=fixed;" vertex="1" parent="a88mkTN01ER_nGAuFpFG-1">
          <mxGeometry x="30" y="400" width="160" height="160" as="geometry" />
        </mxCell>
        <mxCell id="a88mkTN01ER_nGAuFpFG-3" value="" style="group" vertex="1" connectable="0" parent="a88mkTN01ER_nGAuFpFG-1">
          <mxGeometry x="65" y="435" width="90" height="90" as="geometry" />
        </mxCell>
        <mxCell id="a88mkTN01ER_nGAuFpFG-4" value="" style="rounded=0;whiteSpace=wrap;html=1;" vertex="1" parent="a88mkTN01ER_nGAuFpFG-3">
          <mxGeometry width="30" height="30" as="geometry" />
        </mxCell>
        <mxCell id="a88mkTN01ER_nGAuFpFG-5" value="" style="rounded=0;whiteSpace=wrap;html=1;" vertex="1" parent="a88mkTN01ER_nGAuFpFG-3">
          <mxGeometry x="30" width="30" height="30" as="geometry" />
        </mxCell>
        <mxCell id="a88mkTN01ER_nGAuFpFG-6" value="" style="rounded=0;whiteSpace=wrap;html=1;" vertex="1" parent="a88mkTN01ER_nGAuFpFG-3">
          <mxGeometry x="60" width="30" height="30" as="geometry" />
        </mxCell>
        <mxCell id="a88mkTN01ER_nGAuFpFG-7" value="" style="rounded=0;whiteSpace=wrap;html=1;" vertex="1" parent="a88mkTN01ER_nGAuFpFG-3">
          <mxGeometry y="30" width="30" height="30" as="geometry" />
        </mxCell>
        <mxCell id="a88mkTN01ER_nGAuFpFG-8" value="" style="rounded=0;whiteSpace=wrap;html=1;" vertex="1" parent="a88mkTN01ER_nGAuFpFG-3">
          <mxGeometry x="30" y="30" width="30" height="30" as="geometry" />
        </mxCell>
        <mxCell id="a88mkTN01ER_nGAuFpFG-9" value="" style="rounded=0;whiteSpace=wrap;html=1;" vertex="1" parent="a88mkTN01ER_nGAuFpFG-3">
          <mxGeometry x="60" y="30" width="30" height="30" as="geometry" />
        </mxCell>
        <mxCell id="a88mkTN01ER_nGAuFpFG-10" value="" style="rounded=0;whiteSpace=wrap;html=1;" vertex="1" parent="a88mkTN01ER_nGAuFpFG-3">
          <mxGeometry y="60" width="30" height="30" as="geometry" />
        </mxCell>
        <mxCell id="a88mkTN01ER_nGAuFpFG-11" value="" style="rounded=0;whiteSpace=wrap;html=1;" vertex="1" parent="a88mkTN01ER_nGAuFpFG-3">
          <mxGeometry x="30" y="60" width="30" height="30" as="geometry" />
        </mxCell>
        <mxCell id="a88mkTN01ER_nGAuFpFG-12" value="" style="rounded=0;whiteSpace=wrap;html=1;" vertex="1" parent="a88mkTN01ER_nGAuFpFG-3">
          <mxGeometry x="60" y="60" width="30" height="30" as="geometry" />
        </mxCell>
        <mxCell id="a88mkTN01ER_nGAuFpFG-13" value="" style="ellipse;whiteSpace=wrap;html=1;aspect=fixed;" vertex="1" parent="a88mkTN01ER_nGAuFpFG-1">
          <mxGeometry x="270" y="400" width="160" height="160" as="geometry" />
        </mxCell>
        <mxCell id="a88mkTN01ER_nGAuFpFG-14" value="" style="endArrow=classic;html=1;rounded=0;exitX=1;exitY=0.5;exitDx=0;exitDy=0;entryX=0;entryY=0.5;entryDx=0;entryDy=0;" edge="1" parent="a88mkTN01ER_nGAuFpFG-1" source="a88mkTN01ER_nGAuFpFG-2" target="a88mkTN01ER_nGAuFpFG-13">
          <mxGeometry width="50" height="50" relative="1" as="geometry">
            <mxPoint x="400" y="420" as="sourcePoint" />
            <mxPoint x="450" y="370" as="targetPoint" />
          </mxGeometry>
        </mxCell>
        <mxCell id="a88mkTN01ER_nGAuFpFG-15" value="" style="group" vertex="1" connectable="0" parent="a88mkTN01ER_nGAuFpFG-1">
          <mxGeometry x="300" y="440" width="90" height="90" as="geometry" />
        </mxCell>
        <mxCell id="a88mkTN01ER_nGAuFpFG-16" value="" style="rounded=0;whiteSpace=wrap;html=1;" vertex="1" parent="a88mkTN01ER_nGAuFpFG-15">
          <mxGeometry width="30" height="30" as="geometry" />
        </mxCell>
        <mxCell id="a88mkTN01ER_nGAuFpFG-17" value="" style="rounded=0;whiteSpace=wrap;html=1;" vertex="1" parent="a88mkTN01ER_nGAuFpFG-15">
          <mxGeometry x="30" width="30" height="30" as="geometry" />
        </mxCell>
        <mxCell id="a88mkTN01ER_nGAuFpFG-18" value="" style="rounded=0;whiteSpace=wrap;html=1;" vertex="1" parent="a88mkTN01ER_nGAuFpFG-15">
          <mxGeometry x="60" width="30" height="30" as="geometry" />
        </mxCell>
        <mxCell id="a88mkTN01ER_nGAuFpFG-19" value="" style="rounded=0;whiteSpace=wrap;html=1;" vertex="1" parent="a88mkTN01ER_nGAuFpFG-15">
          <mxGeometry y="30" width="30" height="30" as="geometry" />
        </mxCell>
        <mxCell id="a88mkTN01ER_nGAuFpFG-20" value="" style="rounded=0;whiteSpace=wrap;html=1;" vertex="1" parent="a88mkTN01ER_nGAuFpFG-15">
          <mxGeometry x="30" y="30" width="30" height="30" as="geometry" />
        </mxCell>
        <mxCell id="a88mkTN01ER_nGAuFpFG-21" value="" style="rounded=0;whiteSpace=wrap;html=1;" vertex="1" parent="a88mkTN01ER_nGAuFpFG-15">
          <mxGeometry x="60" y="30" width="30" height="30" as="geometry" />
        </mxCell>
        <mxCell id="a88mkTN01ER_nGAuFpFG-22" value="" style="rounded=0;whiteSpace=wrap;html=1;" vertex="1" parent="a88mkTN01ER_nGAuFpFG-15">
          <mxGeometry y="60" width="30" height="30" as="geometry" />
        </mxCell>
        <mxCell id="a88mkTN01ER_nGAuFpFG-23" value="" style="rounded=0;whiteSpace=wrap;html=1;" vertex="1" parent="a88mkTN01ER_nGAuFpFG-15">
          <mxGeometry x="30" y="60" width="30" height="30" as="geometry" />
        </mxCell>
        <mxCell id="a88mkTN01ER_nGAuFpFG-24" value="" style="rounded=0;whiteSpace=wrap;html=1;" vertex="1" parent="a88mkTN01ER_nGAuFpFG-15">
          <mxGeometry x="60" y="60" width="30" height="30" as="geometry" />
        </mxCell>
        <mxCell id="a88mkTN01ER_nGAuFpFG-25" value="" style="ellipse;whiteSpace=wrap;html=1;aspect=fixed;" vertex="1" parent="a88mkTN01ER_nGAuFpFG-15">
          <mxGeometry x="35" y="35" width="20" height="20" as="geometry" />
        </mxCell>
        <mxCell id="a88mkTN01ER_nGAuFpFG-26" value="" style="group" vertex="1" connectable="0" parent="a88mkTN01ER_nGAuFpFG-1">
          <mxGeometry x="430" y="400" width="240" height="160" as="geometry" />
        </mxCell>
        <mxCell id="a88mkTN01ER_nGAuFpFG-27" value="" style="group" vertex="1" connectable="0" parent="a88mkTN01ER_nGAuFpFG-26">
          <mxGeometry width="240" height="160" as="geometry" />
        </mxCell>
        <mxCell id="a88mkTN01ER_nGAuFpFG-28" value="" style="ellipse;whiteSpace=wrap;html=1;aspect=fixed;" vertex="1" parent="a88mkTN01ER_nGAuFpFG-27">
          <mxGeometry x="80" width="160" height="160" as="geometry" />
        </mxCell>
        <mxCell id="a88mkTN01ER_nGAuFpFG-29" value="" style="endArrow=classic;html=1;rounded=0;exitX=1;exitY=0.5;exitDx=0;exitDy=0;entryX=0;entryY=0.5;entryDx=0;entryDy=0;" edge="1" parent="a88mkTN01ER_nGAuFpFG-27" target="a88mkTN01ER_nGAuFpFG-28">
          <mxGeometry width="50" height="50" relative="1" as="geometry">
            <mxPoint y="80" as="sourcePoint" />
            <mxPoint x="260" y="-30" as="targetPoint" />
          </mxGeometry>
        </mxCell>
        <mxCell id="a88mkTN01ER_nGAuFpFG-30" value="" style="group" vertex="1" connectable="0" parent="a88mkTN01ER_nGAuFpFG-27">
          <mxGeometry x="110" y="40" width="90" height="90" as="geometry" />
        </mxCell>
        <mxCell id="a88mkTN01ER_nGAuFpFG-31" value="" style="rounded=0;whiteSpace=wrap;html=1;" vertex="1" parent="a88mkTN01ER_nGAuFpFG-30">
          <mxGeometry width="30" height="30" as="geometry" />
        </mxCell>
        <mxCell id="a88mkTN01ER_nGAuFpFG-32" value="" style="rounded=0;whiteSpace=wrap;html=1;" vertex="1" parent="a88mkTN01ER_nGAuFpFG-30">
          <mxGeometry x="30" width="30" height="30" as="geometry" />
        </mxCell>
        <mxCell id="a88mkTN01ER_nGAuFpFG-33" value="" style="rounded=0;whiteSpace=wrap;html=1;" vertex="1" parent="a88mkTN01ER_nGAuFpFG-30">
          <mxGeometry x="60" width="30" height="30" as="geometry" />
        </mxCell>
        <mxCell id="a88mkTN01ER_nGAuFpFG-34" value="" style="rounded=0;whiteSpace=wrap;html=1;" vertex="1" parent="a88mkTN01ER_nGAuFpFG-30">
          <mxGeometry y="30" width="30" height="30" as="geometry" />
        </mxCell>
        <mxCell id="a88mkTN01ER_nGAuFpFG-35" value="" style="rounded=0;whiteSpace=wrap;html=1;" vertex="1" parent="a88mkTN01ER_nGAuFpFG-30">
          <mxGeometry x="30" y="30" width="30" height="30" as="geometry" />
        </mxCell>
        <mxCell id="a88mkTN01ER_nGAuFpFG-36" value="" style="rounded=0;whiteSpace=wrap;html=1;" vertex="1" parent="a88mkTN01ER_nGAuFpFG-30">
          <mxGeometry x="60" y="30" width="30" height="30" as="geometry" />
        </mxCell>
        <mxCell id="a88mkTN01ER_nGAuFpFG-37" value="" style="rounded=0;whiteSpace=wrap;html=1;" vertex="1" parent="a88mkTN01ER_nGAuFpFG-30">
          <mxGeometry y="60" width="30" height="30" as="geometry" />
        </mxCell>
        <mxCell id="a88mkTN01ER_nGAuFpFG-38" value="" style="rounded=0;whiteSpace=wrap;html=1;" vertex="1" parent="a88mkTN01ER_nGAuFpFG-30">
          <mxGeometry x="30" y="60" width="30" height="30" as="geometry" />
        </mxCell>
        <mxCell id="a88mkTN01ER_nGAuFpFG-39" value="" style="rounded=0;whiteSpace=wrap;html=1;" vertex="1" parent="a88mkTN01ER_nGAuFpFG-30">
          <mxGeometry x="60" y="60" width="30" height="30" as="geometry" />
        </mxCell>
        <mxCell id="a88mkTN01ER_nGAuFpFG-40" value="" style="ellipse;whiteSpace=wrap;html=1;aspect=fixed;" vertex="1" parent="a88mkTN01ER_nGAuFpFG-30">
          <mxGeometry x="35" y="35" width="20" height="20" as="geometry" />
        </mxCell>
        <mxCell id="a88mkTN01ER_nGAuFpFG-41" value="" style="endArrow=none;html=1;rounded=0;entryX=1;entryY=0;entryDx=0;entryDy=0;exitX=1;exitY=1;exitDx=0;exitDy=0;" edge="1" parent="a88mkTN01ER_nGAuFpFG-30" source="a88mkTN01ER_nGAuFpFG-33" target="a88mkTN01ER_nGAuFpFG-32">
          <mxGeometry width="50" height="50" relative="1" as="geometry">
            <mxPoint x="-140" y="-20" as="sourcePoint" />
            <mxPoint x="-90" y="-70" as="targetPoint" />
          </mxGeometry>
        </mxCell>
        <mxCell id="a88mkTN01ER_nGAuFpFG-42" value="" style="endArrow=none;html=1;rounded=0;" edge="1" parent="a88mkTN01ER_nGAuFpFG-27">
          <mxGeometry width="50" height="50" relative="1" as="geometry">
            <mxPoint x="170" y="70" as="sourcePoint" />
            <mxPoint x="200" y="40" as="targetPoint" />
          </mxGeometry>
        </mxCell>
        <mxCell id="a88mkTN01ER_nGAuFpFG-43" value="" style="group" vertex="1" connectable="0" parent="a88mkTN01ER_nGAuFpFG-1">
          <mxGeometry x="670" y="400" width="240" height="160" as="geometry" />
        </mxCell>
        <mxCell id="a88mkTN01ER_nGAuFpFG-44" value="" style="ellipse;whiteSpace=wrap;html=1;aspect=fixed;" vertex="1" parent="a88mkTN01ER_nGAuFpFG-43">
          <mxGeometry x="80" width="160" height="160" as="geometry" />
        </mxCell>
        <mxCell id="a88mkTN01ER_nGAuFpFG-45" value="" style="endArrow=classic;html=1;rounded=0;exitX=1;exitY=0.5;exitDx=0;exitDy=0;entryX=0;entryY=0.5;entryDx=0;entryDy=0;" edge="1" parent="a88mkTN01ER_nGAuFpFG-43" target="a88mkTN01ER_nGAuFpFG-44">
          <mxGeometry width="50" height="50" relative="1" as="geometry">
            <mxPoint y="80" as="sourcePoint" />
            <mxPoint x="260" y="-30" as="targetPoint" />
          </mxGeometry>
        </mxCell>
        <mxCell id="a88mkTN01ER_nGAuFpFG-46" value="" style="group" vertex="1" connectable="0" parent="a88mkTN01ER_nGAuFpFG-43">
          <mxGeometry x="110" y="40" width="90" height="90" as="geometry" />
        </mxCell>
        <mxCell id="a88mkTN01ER_nGAuFpFG-47" value="" style="rounded=0;whiteSpace=wrap;html=1;" vertex="1" parent="a88mkTN01ER_nGAuFpFG-46">
          <mxGeometry width="30" height="30" as="geometry" />
        </mxCell>
        <mxCell id="a88mkTN01ER_nGAuFpFG-48" value="" style="rounded=0;whiteSpace=wrap;html=1;" vertex="1" parent="a88mkTN01ER_nGAuFpFG-46">
          <mxGeometry x="30" width="30" height="30" as="geometry" />
        </mxCell>
        <mxCell id="a88mkTN01ER_nGAuFpFG-49" value="" style="rounded=0;whiteSpace=wrap;html=1;" vertex="1" parent="a88mkTN01ER_nGAuFpFG-46">
          <mxGeometry x="60" width="30" height="30" as="geometry" />
        </mxCell>
        <mxCell id="a88mkTN01ER_nGAuFpFG-50" value="" style="rounded=0;whiteSpace=wrap;html=1;" vertex="1" parent="a88mkTN01ER_nGAuFpFG-46">
          <mxGeometry y="30" width="30" height="30" as="geometry" />
        </mxCell>
        <mxCell id="a88mkTN01ER_nGAuFpFG-51" value="" style="rounded=0;whiteSpace=wrap;html=1;" vertex="1" parent="a88mkTN01ER_nGAuFpFG-46">
          <mxGeometry x="30" y="30" width="30" height="30" as="geometry" />
        </mxCell>
        <mxCell id="a88mkTN01ER_nGAuFpFG-52" value="" style="rounded=0;whiteSpace=wrap;html=1;" vertex="1" parent="a88mkTN01ER_nGAuFpFG-46">
          <mxGeometry x="60" y="30" width="30" height="30" as="geometry" />
        </mxCell>
        <mxCell id="a88mkTN01ER_nGAuFpFG-53" value="" style="rounded=0;whiteSpace=wrap;html=1;" vertex="1" parent="a88mkTN01ER_nGAuFpFG-46">
          <mxGeometry y="60" width="30" height="30" as="geometry" />
        </mxCell>
        <mxCell id="a88mkTN01ER_nGAuFpFG-54" value="" style="rounded=0;whiteSpace=wrap;html=1;" vertex="1" parent="a88mkTN01ER_nGAuFpFG-46">
          <mxGeometry x="30" y="60" width="30" height="30" as="geometry" />
        </mxCell>
        <mxCell id="a88mkTN01ER_nGAuFpFG-55" value="" style="rounded=0;whiteSpace=wrap;html=1;" vertex="1" parent="a88mkTN01ER_nGAuFpFG-46">
          <mxGeometry x="60" y="60" width="30" height="30" as="geometry" />
        </mxCell>
        <mxCell id="a88mkTN01ER_nGAuFpFG-56" value="" style="ellipse;whiteSpace=wrap;html=1;aspect=fixed;" vertex="1" parent="a88mkTN01ER_nGAuFpFG-46">
          <mxGeometry x="35" y="35" width="20" height="20" as="geometry" />
        </mxCell>
        <mxCell id="a88mkTN01ER_nGAuFpFG-57" value="" style="endArrow=none;html=1;rounded=0;entryX=1;entryY=0;entryDx=0;entryDy=0;exitX=1;exitY=1;exitDx=0;exitDy=0;" edge="1" parent="a88mkTN01ER_nGAuFpFG-46" source="a88mkTN01ER_nGAuFpFG-49" target="a88mkTN01ER_nGAuFpFG-48">
          <mxGeometry width="50" height="50" relative="1" as="geometry">
            <mxPoint x="-140" y="-20" as="sourcePoint" />
            <mxPoint x="-90" y="-70" as="targetPoint" />
          </mxGeometry>
        </mxCell>
        <mxCell id="a88mkTN01ER_nGAuFpFG-58" value="" style="ellipse;whiteSpace=wrap;html=1;aspect=fixed;" vertex="1" parent="a88mkTN01ER_nGAuFpFG-46">
          <mxGeometry x="5" y="5" width="20" height="20" as="geometry" />
        </mxCell>
        <mxCell id="a88mkTN01ER_nGAuFpFG-59" value="" style="endArrow=none;html=1;rounded=0;" edge="1" parent="a88mkTN01ER_nGAuFpFG-43">
          <mxGeometry width="50" height="50" relative="1" as="geometry">
            <mxPoint x="170" y="70" as="sourcePoint" />
            <mxPoint x="200" y="40" as="targetPoint" />
          </mxGeometry>
        </mxCell>
        <mxCell id="a88mkTN01ER_nGAuFpFG-60" value="" style="group" vertex="1" connectable="0" parent="a88mkTN01ER_nGAuFpFG-1">
          <mxGeometry x="910" y="400" width="240" height="160" as="geometry" />
        </mxCell>
        <mxCell id="a88mkTN01ER_nGAuFpFG-61" value="" style="ellipse;whiteSpace=wrap;html=1;aspect=fixed;" vertex="1" parent="a88mkTN01ER_nGAuFpFG-60">
          <mxGeometry x="80" width="160" height="160" as="geometry" />
        </mxCell>
        <mxCell id="a88mkTN01ER_nGAuFpFG-62" value="" style="endArrow=classic;html=1;rounded=0;exitX=1;exitY=0.5;exitDx=0;exitDy=0;entryX=0;entryY=0.5;entryDx=0;entryDy=0;" edge="1" parent="a88mkTN01ER_nGAuFpFG-60" target="a88mkTN01ER_nGAuFpFG-61">
          <mxGeometry width="50" height="50" relative="1" as="geometry">
            <mxPoint y="80" as="sourcePoint" />
            <mxPoint x="260" y="-30" as="targetPoint" />
          </mxGeometry>
        </mxCell>
        <mxCell id="a88mkTN01ER_nGAuFpFG-63" value="" style="group" vertex="1" connectable="0" parent="a88mkTN01ER_nGAuFpFG-60">
          <mxGeometry x="110" y="40" width="90" height="90" as="geometry" />
        </mxCell>
        <mxCell id="a88mkTN01ER_nGAuFpFG-64" value="" style="rounded=0;whiteSpace=wrap;html=1;" vertex="1" parent="a88mkTN01ER_nGAuFpFG-63">
          <mxGeometry width="30" height="30" as="geometry" />
        </mxCell>
        <mxCell id="a88mkTN01ER_nGAuFpFG-65" value="" style="rounded=0;whiteSpace=wrap;html=1;" vertex="1" parent="a88mkTN01ER_nGAuFpFG-63">
          <mxGeometry x="30" width="30" height="30" as="geometry" />
        </mxCell>
        <mxCell id="a88mkTN01ER_nGAuFpFG-66" value="" style="rounded=0;whiteSpace=wrap;html=1;" vertex="1" parent="a88mkTN01ER_nGAuFpFG-63">
          <mxGeometry x="60" width="30" height="30" as="geometry" />
        </mxCell>
        <mxCell id="a88mkTN01ER_nGAuFpFG-67" value="" style="rounded=0;whiteSpace=wrap;html=1;" vertex="1" parent="a88mkTN01ER_nGAuFpFG-63">
          <mxGeometry y="30" width="30" height="30" as="geometry" />
        </mxCell>
        <mxCell id="a88mkTN01ER_nGAuFpFG-68" value="" style="rounded=0;whiteSpace=wrap;html=1;" vertex="1" parent="a88mkTN01ER_nGAuFpFG-63">
          <mxGeometry x="30" y="30" width="30" height="30" as="geometry" />
        </mxCell>
        <mxCell id="a88mkTN01ER_nGAuFpFG-69" value="" style="rounded=0;whiteSpace=wrap;html=1;" vertex="1" parent="a88mkTN01ER_nGAuFpFG-63">
          <mxGeometry x="60" y="30" width="30" height="30" as="geometry" />
        </mxCell>
        <mxCell id="a88mkTN01ER_nGAuFpFG-70" value="" style="rounded=0;whiteSpace=wrap;html=1;" vertex="1" parent="a88mkTN01ER_nGAuFpFG-63">
          <mxGeometry y="60" width="30" height="30" as="geometry" />
        </mxCell>
        <mxCell id="a88mkTN01ER_nGAuFpFG-71" value="" style="rounded=0;whiteSpace=wrap;html=1;" vertex="1" parent="a88mkTN01ER_nGAuFpFG-63">
          <mxGeometry x="30" y="60" width="30" height="30" as="geometry" />
        </mxCell>
        <mxCell id="a88mkTN01ER_nGAuFpFG-72" value="" style="rounded=0;whiteSpace=wrap;html=1;" vertex="1" parent="a88mkTN01ER_nGAuFpFG-63">
          <mxGeometry x="60" y="60" width="30" height="30" as="geometry" />
        </mxCell>
        <mxCell id="a88mkTN01ER_nGAuFpFG-73" value="" style="ellipse;whiteSpace=wrap;html=1;aspect=fixed;" vertex="1" parent="a88mkTN01ER_nGAuFpFG-63">
          <mxGeometry x="35" y="35" width="20" height="20" as="geometry" />
        </mxCell>
        <mxCell id="a88mkTN01ER_nGAuFpFG-74" value="" style="endArrow=none;html=1;rounded=0;entryX=1;entryY=0;entryDx=0;entryDy=0;exitX=1;exitY=1;exitDx=0;exitDy=0;" edge="1" parent="a88mkTN01ER_nGAuFpFG-63" source="a88mkTN01ER_nGAuFpFG-66" target="a88mkTN01ER_nGAuFpFG-65">
          <mxGeometry width="50" height="50" relative="1" as="geometry">
            <mxPoint x="-140" y="-20" as="sourcePoint" />
            <mxPoint x="-90" y="-70" as="targetPoint" />
          </mxGeometry>
        </mxCell>
        <mxCell id="a88mkTN01ER_nGAuFpFG-75" value="" style="ellipse;whiteSpace=wrap;html=1;aspect=fixed;" vertex="1" parent="a88mkTN01ER_nGAuFpFG-63">
          <mxGeometry x="5" y="5" width="20" height="20" as="geometry" />
        </mxCell>
        <mxCell id="a88mkTN01ER_nGAuFpFG-76" value="" style="endArrow=none;html=1;rounded=0;entryX=1;entryY=0;entryDx=0;entryDy=0;exitX=1;exitY=1;exitDx=0;exitDy=0;" edge="1" parent="a88mkTN01ER_nGAuFpFG-63" source="a88mkTN01ER_nGAuFpFG-72" target="a88mkTN01ER_nGAuFpFG-71">
          <mxGeometry width="50" height="50" relative="1" as="geometry">
            <mxPoint x="-310" y="-20" as="sourcePoint" />
            <mxPoint x="-260" y="-70" as="targetPoint" />
          </mxGeometry>
        </mxCell>
        <mxCell id="a88mkTN01ER_nGAuFpFG-77" value="" style="endArrow=none;html=1;rounded=0;entryX=1;entryY=0;entryDx=0;entryDy=0;exitX=0;exitY=1;exitDx=0;exitDy=0;" edge="1" parent="a88mkTN01ER_nGAuFpFG-63" source="a88mkTN01ER_nGAuFpFG-72" target="a88mkTN01ER_nGAuFpFG-72">
          <mxGeometry width="50" height="50" relative="1" as="geometry">
            <mxPoint x="-310" y="-20" as="sourcePoint" />
            <mxPoint x="-260" y="-70" as="targetPoint" />
          </mxGeometry>
        </mxCell>
        <mxCell id="a88mkTN01ER_nGAuFpFG-78" value="" style="endArrow=none;html=1;rounded=0;" edge="1" parent="a88mkTN01ER_nGAuFpFG-60">
          <mxGeometry width="50" height="50" relative="1" as="geometry">
            <mxPoint x="170" y="70" as="sourcePoint" />
            <mxPoint x="200" y="40" as="targetPoint" />
          </mxGeometry>
        </mxCell>
        <mxCell id="fz7KcrJtVR9N8QShrTbJ-18" value="" style="group" vertex="1" connectable="0" parent="a88mkTN01ER_nGAuFpFG-1">
          <mxGeometry x="1155" y="400" width="240" height="160" as="geometry" />
        </mxCell>
        <mxCell id="fz7KcrJtVR9N8QShrTbJ-0" value="" style="ellipse;whiteSpace=wrap;html=1;aspect=fixed;" vertex="1" parent="fz7KcrJtVR9N8QShrTbJ-18">
          <mxGeometry x="80" width="160" height="160" as="geometry" />
        </mxCell>
        <mxCell id="fz7KcrJtVR9N8QShrTbJ-1" value="" style="endArrow=classic;html=1;rounded=0;exitX=1;exitY=0.5;exitDx=0;exitDy=0;entryX=0;entryY=0.5;entryDx=0;entryDy=0;" edge="1" parent="fz7KcrJtVR9N8QShrTbJ-18" target="fz7KcrJtVR9N8QShrTbJ-0">
          <mxGeometry width="50" height="50" relative="1" as="geometry">
            <mxPoint y="80" as="sourcePoint" />
            <mxPoint x="260" y="-30" as="targetPoint" />
          </mxGeometry>
        </mxCell>
        <mxCell id="fz7KcrJtVR9N8QShrTbJ-2" value="" style="group" vertex="1" connectable="0" parent="fz7KcrJtVR9N8QShrTbJ-18">
          <mxGeometry x="110" y="40" width="90" height="90" as="geometry" />
        </mxCell>
        <mxCell id="fz7KcrJtVR9N8QShrTbJ-3" value="" style="rounded=0;whiteSpace=wrap;html=1;" vertex="1" parent="fz7KcrJtVR9N8QShrTbJ-2">
          <mxGeometry width="30" height="30" as="geometry" />
        </mxCell>
        <mxCell id="fz7KcrJtVR9N8QShrTbJ-4" value="" style="rounded=0;whiteSpace=wrap;html=1;" vertex="1" parent="fz7KcrJtVR9N8QShrTbJ-2">
          <mxGeometry x="30" width="30" height="30" as="geometry" />
        </mxCell>
        <mxCell id="fz7KcrJtVR9N8QShrTbJ-5" value="" style="rounded=0;whiteSpace=wrap;html=1;" vertex="1" parent="fz7KcrJtVR9N8QShrTbJ-2">
          <mxGeometry x="60" width="30" height="30" as="geometry" />
        </mxCell>
        <mxCell id="fz7KcrJtVR9N8QShrTbJ-6" value="" style="rounded=0;whiteSpace=wrap;html=1;" vertex="1" parent="fz7KcrJtVR9N8QShrTbJ-2">
          <mxGeometry y="30" width="30" height="30" as="geometry" />
        </mxCell>
        <mxCell id="fz7KcrJtVR9N8QShrTbJ-7" value="" style="rounded=0;whiteSpace=wrap;html=1;" vertex="1" parent="fz7KcrJtVR9N8QShrTbJ-2">
          <mxGeometry x="30" y="30" width="30" height="30" as="geometry" />
        </mxCell>
        <mxCell id="fz7KcrJtVR9N8QShrTbJ-8" value="" style="rounded=0;whiteSpace=wrap;html=1;" vertex="1" parent="fz7KcrJtVR9N8QShrTbJ-2">
          <mxGeometry x="60" y="30" width="30" height="30" as="geometry" />
        </mxCell>
        <mxCell id="fz7KcrJtVR9N8QShrTbJ-9" value="" style="rounded=0;whiteSpace=wrap;html=1;" vertex="1" parent="fz7KcrJtVR9N8QShrTbJ-2">
          <mxGeometry y="60" width="30" height="30" as="geometry" />
        </mxCell>
        <mxCell id="fz7KcrJtVR9N8QShrTbJ-10" value="" style="rounded=0;whiteSpace=wrap;html=1;" vertex="1" parent="fz7KcrJtVR9N8QShrTbJ-2">
          <mxGeometry x="30" y="60" width="30" height="30" as="geometry" />
        </mxCell>
        <mxCell id="fz7KcrJtVR9N8QShrTbJ-11" value="" style="rounded=0;whiteSpace=wrap;html=1;" vertex="1" parent="fz7KcrJtVR9N8QShrTbJ-2">
          <mxGeometry x="60" y="60" width="30" height="30" as="geometry" />
        </mxCell>
        <mxCell id="fz7KcrJtVR9N8QShrTbJ-12" value="" style="ellipse;whiteSpace=wrap;html=1;aspect=fixed;" vertex="1" parent="fz7KcrJtVR9N8QShrTbJ-2">
          <mxGeometry x="35" y="35" width="20" height="20" as="geometry" />
        </mxCell>
        <mxCell id="fz7KcrJtVR9N8QShrTbJ-13" value="" style="endArrow=none;html=1;rounded=0;entryX=1;entryY=0;entryDx=0;entryDy=0;exitX=1;exitY=1;exitDx=0;exitDy=0;" edge="1" parent="fz7KcrJtVR9N8QShrTbJ-2" source="fz7KcrJtVR9N8QShrTbJ-5" target="fz7KcrJtVR9N8QShrTbJ-4">
          <mxGeometry width="50" height="50" relative="1" as="geometry">
            <mxPoint x="-140" y="-20" as="sourcePoint" />
            <mxPoint x="-90" y="-70" as="targetPoint" />
          </mxGeometry>
        </mxCell>
        <mxCell id="fz7KcrJtVR9N8QShrTbJ-14" value="" style="ellipse;whiteSpace=wrap;html=1;aspect=fixed;" vertex="1" parent="fz7KcrJtVR9N8QShrTbJ-2">
          <mxGeometry x="5" y="5" width="20" height="20" as="geometry" />
        </mxCell>
        <mxCell id="fz7KcrJtVR9N8QShrTbJ-15" value="" style="endArrow=none;html=1;rounded=0;entryX=1;entryY=0;entryDx=0;entryDy=0;exitX=1;exitY=1;exitDx=0;exitDy=0;" edge="1" parent="fz7KcrJtVR9N8QShrTbJ-2" source="fz7KcrJtVR9N8QShrTbJ-11" target="fz7KcrJtVR9N8QShrTbJ-10">
          <mxGeometry width="50" height="50" relative="1" as="geometry">
            <mxPoint x="-310" y="-20" as="sourcePoint" />
            <mxPoint x="-260" y="-70" as="targetPoint" />
          </mxGeometry>
        </mxCell>
        <mxCell id="fz7KcrJtVR9N8QShrTbJ-16" value="" style="endArrow=none;html=1;rounded=0;entryX=1;entryY=0;entryDx=0;entryDy=0;exitX=0;exitY=1;exitDx=0;exitDy=0;" edge="1" parent="fz7KcrJtVR9N8QShrTbJ-2" source="fz7KcrJtVR9N8QShrTbJ-11" target="fz7KcrJtVR9N8QShrTbJ-11">
          <mxGeometry width="50" height="50" relative="1" as="geometry">
            <mxPoint x="-310" y="-20" as="sourcePoint" />
            <mxPoint x="-260" y="-70" as="targetPoint" />
          </mxGeometry>
        </mxCell>
        <mxCell id="fz7KcrJtVR9N8QShrTbJ-20" value="" style="ellipse;whiteSpace=wrap;html=1;aspect=fixed;" vertex="1" parent="fz7KcrJtVR9N8QShrTbJ-2">
          <mxGeometry x="5" y="35" width="20" height="20" as="geometry" />
        </mxCell>
        <mxCell id="fz7KcrJtVR9N8QShrTbJ-17" value="" style="endArrow=none;html=1;rounded=0;" edge="1" parent="fz7KcrJtVR9N8QShrTbJ-18">
          <mxGeometry width="50" height="50" relative="1" as="geometry">
            <mxPoint x="170" y="70" as="sourcePoint" />
            <mxPoint x="200" y="40" as="targetPoint" />
          </mxGeometry>
        </mxCell>
      </root>
    </mxGraphModel>
  </diagram>
  <diagram name="Slide 7" id="jo8ZwSjNnsGG9eCqt-c1">
    <mxGraphModel dx="1434" dy="760" grid="1" gridSize="10" guides="1" tooltips="1" connect="1" arrows="1" fold="1" page="1" pageScale="1" pageWidth="850" pageHeight="1100" math="0" shadow="0">
      <root>
        <mxCell id="QI-gqBbRlICIVJk3eT7E-0" />
        <mxCell id="QI-gqBbRlICIVJk3eT7E-1" parent="QI-gqBbRlICIVJk3eT7E-0" />
        <mxCell id="QI-gqBbRlICIVJk3eT7E-2" value="" style="ellipse;whiteSpace=wrap;html=1;aspect=fixed;" vertex="1" parent="QI-gqBbRlICIVJk3eT7E-1">
          <mxGeometry x="30" y="400" width="160" height="160" as="geometry" />
        </mxCell>
        <mxCell id="QI-gqBbRlICIVJk3eT7E-3" value="" style="group" vertex="1" connectable="0" parent="QI-gqBbRlICIVJk3eT7E-1">
          <mxGeometry x="65" y="435" width="90" height="90" as="geometry" />
        </mxCell>
        <mxCell id="QI-gqBbRlICIVJk3eT7E-4" value="" style="rounded=0;whiteSpace=wrap;html=1;" vertex="1" parent="QI-gqBbRlICIVJk3eT7E-3">
          <mxGeometry width="30" height="30" as="geometry" />
        </mxCell>
        <mxCell id="QI-gqBbRlICIVJk3eT7E-5" value="" style="rounded=0;whiteSpace=wrap;html=1;" vertex="1" parent="QI-gqBbRlICIVJk3eT7E-3">
          <mxGeometry x="30" width="30" height="30" as="geometry" />
        </mxCell>
        <mxCell id="QI-gqBbRlICIVJk3eT7E-6" value="" style="rounded=0;whiteSpace=wrap;html=1;" vertex="1" parent="QI-gqBbRlICIVJk3eT7E-3">
          <mxGeometry x="60" width="30" height="30" as="geometry" />
        </mxCell>
        <mxCell id="QI-gqBbRlICIVJk3eT7E-7" value="" style="rounded=0;whiteSpace=wrap;html=1;" vertex="1" parent="QI-gqBbRlICIVJk3eT7E-3">
          <mxGeometry y="30" width="30" height="30" as="geometry" />
        </mxCell>
        <mxCell id="QI-gqBbRlICIVJk3eT7E-8" value="" style="rounded=0;whiteSpace=wrap;html=1;" vertex="1" parent="QI-gqBbRlICIVJk3eT7E-3">
          <mxGeometry x="30" y="30" width="30" height="30" as="geometry" />
        </mxCell>
        <mxCell id="QI-gqBbRlICIVJk3eT7E-9" value="" style="rounded=0;whiteSpace=wrap;html=1;" vertex="1" parent="QI-gqBbRlICIVJk3eT7E-3">
          <mxGeometry x="60" y="30" width="30" height="30" as="geometry" />
        </mxCell>
        <mxCell id="QI-gqBbRlICIVJk3eT7E-10" value="" style="rounded=0;whiteSpace=wrap;html=1;" vertex="1" parent="QI-gqBbRlICIVJk3eT7E-3">
          <mxGeometry y="60" width="30" height="30" as="geometry" />
        </mxCell>
        <mxCell id="QI-gqBbRlICIVJk3eT7E-11" value="" style="rounded=0;whiteSpace=wrap;html=1;" vertex="1" parent="QI-gqBbRlICIVJk3eT7E-3">
          <mxGeometry x="30" y="60" width="30" height="30" as="geometry" />
        </mxCell>
        <mxCell id="QI-gqBbRlICIVJk3eT7E-12" value="" style="rounded=0;whiteSpace=wrap;html=1;" vertex="1" parent="QI-gqBbRlICIVJk3eT7E-3">
          <mxGeometry x="60" y="60" width="30" height="30" as="geometry" />
        </mxCell>
        <mxCell id="QI-gqBbRlICIVJk3eT7E-13" value="" style="ellipse;whiteSpace=wrap;html=1;aspect=fixed;" vertex="1" parent="QI-gqBbRlICIVJk3eT7E-1">
          <mxGeometry x="270" y="400" width="160" height="160" as="geometry" />
        </mxCell>
        <mxCell id="QI-gqBbRlICIVJk3eT7E-14" value="" style="endArrow=classic;html=1;rounded=0;exitX=1;exitY=0.5;exitDx=0;exitDy=0;entryX=0;entryY=0.5;entryDx=0;entryDy=0;" edge="1" parent="QI-gqBbRlICIVJk3eT7E-1" source="QI-gqBbRlICIVJk3eT7E-2" target="QI-gqBbRlICIVJk3eT7E-13">
          <mxGeometry width="50" height="50" relative="1" as="geometry">
            <mxPoint x="400" y="420" as="sourcePoint" />
            <mxPoint x="450" y="370" as="targetPoint" />
          </mxGeometry>
        </mxCell>
        <mxCell id="QI-gqBbRlICIVJk3eT7E-15" value="" style="group" vertex="1" connectable="0" parent="QI-gqBbRlICIVJk3eT7E-1">
          <mxGeometry x="300" y="440" width="90" height="90" as="geometry" />
        </mxCell>
        <mxCell id="QI-gqBbRlICIVJk3eT7E-16" value="" style="rounded=0;whiteSpace=wrap;html=1;" vertex="1" parent="QI-gqBbRlICIVJk3eT7E-15">
          <mxGeometry width="30" height="30" as="geometry" />
        </mxCell>
        <mxCell id="QI-gqBbRlICIVJk3eT7E-17" value="" style="rounded=0;whiteSpace=wrap;html=1;" vertex="1" parent="QI-gqBbRlICIVJk3eT7E-15">
          <mxGeometry x="30" width="30" height="30" as="geometry" />
        </mxCell>
        <mxCell id="QI-gqBbRlICIVJk3eT7E-18" value="" style="rounded=0;whiteSpace=wrap;html=1;" vertex="1" parent="QI-gqBbRlICIVJk3eT7E-15">
          <mxGeometry x="60" width="30" height="30" as="geometry" />
        </mxCell>
        <mxCell id="QI-gqBbRlICIVJk3eT7E-19" value="" style="rounded=0;whiteSpace=wrap;html=1;" vertex="1" parent="QI-gqBbRlICIVJk3eT7E-15">
          <mxGeometry y="30" width="30" height="30" as="geometry" />
        </mxCell>
        <mxCell id="QI-gqBbRlICIVJk3eT7E-20" value="" style="rounded=0;whiteSpace=wrap;html=1;" vertex="1" parent="QI-gqBbRlICIVJk3eT7E-15">
          <mxGeometry x="30" y="30" width="30" height="30" as="geometry" />
        </mxCell>
        <mxCell id="QI-gqBbRlICIVJk3eT7E-21" value="" style="rounded=0;whiteSpace=wrap;html=1;" vertex="1" parent="QI-gqBbRlICIVJk3eT7E-15">
          <mxGeometry x="60" y="30" width="30" height="30" as="geometry" />
        </mxCell>
        <mxCell id="QI-gqBbRlICIVJk3eT7E-22" value="" style="rounded=0;whiteSpace=wrap;html=1;" vertex="1" parent="QI-gqBbRlICIVJk3eT7E-15">
          <mxGeometry y="60" width="30" height="30" as="geometry" />
        </mxCell>
        <mxCell id="QI-gqBbRlICIVJk3eT7E-23" value="" style="rounded=0;whiteSpace=wrap;html=1;" vertex="1" parent="QI-gqBbRlICIVJk3eT7E-15">
          <mxGeometry x="30" y="60" width="30" height="30" as="geometry" />
        </mxCell>
        <mxCell id="QI-gqBbRlICIVJk3eT7E-24" value="" style="rounded=0;whiteSpace=wrap;html=1;" vertex="1" parent="QI-gqBbRlICIVJk3eT7E-15">
          <mxGeometry x="60" y="60" width="30" height="30" as="geometry" />
        </mxCell>
        <mxCell id="QI-gqBbRlICIVJk3eT7E-25" value="" style="ellipse;whiteSpace=wrap;html=1;aspect=fixed;" vertex="1" parent="QI-gqBbRlICIVJk3eT7E-15">
          <mxGeometry x="35" y="35" width="20" height="20" as="geometry" />
        </mxCell>
        <mxCell id="QI-gqBbRlICIVJk3eT7E-26" value="" style="group" vertex="1" connectable="0" parent="QI-gqBbRlICIVJk3eT7E-1">
          <mxGeometry x="430" y="400" width="240" height="160" as="geometry" />
        </mxCell>
        <mxCell id="QI-gqBbRlICIVJk3eT7E-27" value="" style="group" vertex="1" connectable="0" parent="QI-gqBbRlICIVJk3eT7E-26">
          <mxGeometry width="240" height="160" as="geometry" />
        </mxCell>
        <mxCell id="QI-gqBbRlICIVJk3eT7E-28" value="" style="ellipse;whiteSpace=wrap;html=1;aspect=fixed;" vertex="1" parent="QI-gqBbRlICIVJk3eT7E-27">
          <mxGeometry x="80" width="160" height="160" as="geometry" />
        </mxCell>
        <mxCell id="QI-gqBbRlICIVJk3eT7E-29" value="" style="endArrow=classic;html=1;rounded=0;exitX=1;exitY=0.5;exitDx=0;exitDy=0;entryX=0;entryY=0.5;entryDx=0;entryDy=0;" edge="1" parent="QI-gqBbRlICIVJk3eT7E-27" target="QI-gqBbRlICIVJk3eT7E-28">
          <mxGeometry width="50" height="50" relative="1" as="geometry">
            <mxPoint y="80" as="sourcePoint" />
            <mxPoint x="260" y="-30" as="targetPoint" />
          </mxGeometry>
        </mxCell>
        <mxCell id="QI-gqBbRlICIVJk3eT7E-30" value="" style="group" vertex="1" connectable="0" parent="QI-gqBbRlICIVJk3eT7E-27">
          <mxGeometry x="110" y="40" width="90" height="90" as="geometry" />
        </mxCell>
        <mxCell id="QI-gqBbRlICIVJk3eT7E-31" value="" style="rounded=0;whiteSpace=wrap;html=1;" vertex="1" parent="QI-gqBbRlICIVJk3eT7E-30">
          <mxGeometry width="30" height="30" as="geometry" />
        </mxCell>
        <mxCell id="QI-gqBbRlICIVJk3eT7E-32" value="" style="rounded=0;whiteSpace=wrap;html=1;" vertex="1" parent="QI-gqBbRlICIVJk3eT7E-30">
          <mxGeometry x="30" width="30" height="30" as="geometry" />
        </mxCell>
        <mxCell id="QI-gqBbRlICIVJk3eT7E-33" value="" style="rounded=0;whiteSpace=wrap;html=1;" vertex="1" parent="QI-gqBbRlICIVJk3eT7E-30">
          <mxGeometry x="60" width="30" height="30" as="geometry" />
        </mxCell>
        <mxCell id="QI-gqBbRlICIVJk3eT7E-34" value="" style="rounded=0;whiteSpace=wrap;html=1;" vertex="1" parent="QI-gqBbRlICIVJk3eT7E-30">
          <mxGeometry y="30" width="30" height="30" as="geometry" />
        </mxCell>
        <mxCell id="QI-gqBbRlICIVJk3eT7E-35" value="" style="rounded=0;whiteSpace=wrap;html=1;" vertex="1" parent="QI-gqBbRlICIVJk3eT7E-30">
          <mxGeometry x="30" y="30" width="30" height="30" as="geometry" />
        </mxCell>
        <mxCell id="QI-gqBbRlICIVJk3eT7E-36" value="" style="rounded=0;whiteSpace=wrap;html=1;" vertex="1" parent="QI-gqBbRlICIVJk3eT7E-30">
          <mxGeometry x="60" y="30" width="30" height="30" as="geometry" />
        </mxCell>
        <mxCell id="QI-gqBbRlICIVJk3eT7E-37" value="" style="rounded=0;whiteSpace=wrap;html=1;" vertex="1" parent="QI-gqBbRlICIVJk3eT7E-30">
          <mxGeometry y="60" width="30" height="30" as="geometry" />
        </mxCell>
        <mxCell id="QI-gqBbRlICIVJk3eT7E-38" value="" style="rounded=0;whiteSpace=wrap;html=1;" vertex="1" parent="QI-gqBbRlICIVJk3eT7E-30">
          <mxGeometry x="30" y="60" width="30" height="30" as="geometry" />
        </mxCell>
        <mxCell id="QI-gqBbRlICIVJk3eT7E-39" value="" style="rounded=0;whiteSpace=wrap;html=1;" vertex="1" parent="QI-gqBbRlICIVJk3eT7E-30">
          <mxGeometry x="60" y="60" width="30" height="30" as="geometry" />
        </mxCell>
        <mxCell id="QI-gqBbRlICIVJk3eT7E-40" value="" style="ellipse;whiteSpace=wrap;html=1;aspect=fixed;" vertex="1" parent="QI-gqBbRlICIVJk3eT7E-30">
          <mxGeometry x="35" y="35" width="20" height="20" as="geometry" />
        </mxCell>
        <mxCell id="QI-gqBbRlICIVJk3eT7E-41" value="" style="endArrow=none;html=1;rounded=0;entryX=1;entryY=0;entryDx=0;entryDy=0;exitX=1;exitY=1;exitDx=0;exitDy=0;" edge="1" parent="QI-gqBbRlICIVJk3eT7E-30" source="QI-gqBbRlICIVJk3eT7E-33" target="QI-gqBbRlICIVJk3eT7E-32">
          <mxGeometry width="50" height="50" relative="1" as="geometry">
            <mxPoint x="-140" y="-20" as="sourcePoint" />
            <mxPoint x="-90" y="-70" as="targetPoint" />
          </mxGeometry>
        </mxCell>
        <mxCell id="QI-gqBbRlICIVJk3eT7E-42" value="" style="endArrow=none;html=1;rounded=0;" edge="1" parent="QI-gqBbRlICIVJk3eT7E-27">
          <mxGeometry width="50" height="50" relative="1" as="geometry">
            <mxPoint x="170" y="70" as="sourcePoint" />
            <mxPoint x="200" y="40" as="targetPoint" />
          </mxGeometry>
        </mxCell>
        <mxCell id="QI-gqBbRlICIVJk3eT7E-43" value="" style="group" vertex="1" connectable="0" parent="QI-gqBbRlICIVJk3eT7E-1">
          <mxGeometry x="670" y="400" width="240" height="160" as="geometry" />
        </mxCell>
        <mxCell id="QI-gqBbRlICIVJk3eT7E-44" value="" style="ellipse;whiteSpace=wrap;html=1;aspect=fixed;" vertex="1" parent="QI-gqBbRlICIVJk3eT7E-43">
          <mxGeometry x="80" width="160" height="160" as="geometry" />
        </mxCell>
        <mxCell id="QI-gqBbRlICIVJk3eT7E-45" value="" style="endArrow=classic;html=1;rounded=0;exitX=1;exitY=0.5;exitDx=0;exitDy=0;entryX=0;entryY=0.5;entryDx=0;entryDy=0;" edge="1" parent="QI-gqBbRlICIVJk3eT7E-43" target="QI-gqBbRlICIVJk3eT7E-44">
          <mxGeometry width="50" height="50" relative="1" as="geometry">
            <mxPoint y="80" as="sourcePoint" />
            <mxPoint x="260" y="-30" as="targetPoint" />
          </mxGeometry>
        </mxCell>
        <mxCell id="QI-gqBbRlICIVJk3eT7E-46" value="" style="group" vertex="1" connectable="0" parent="QI-gqBbRlICIVJk3eT7E-43">
          <mxGeometry x="110" y="40" width="90" height="90" as="geometry" />
        </mxCell>
        <mxCell id="QI-gqBbRlICIVJk3eT7E-47" value="" style="rounded=0;whiteSpace=wrap;html=1;" vertex="1" parent="QI-gqBbRlICIVJk3eT7E-46">
          <mxGeometry width="30" height="30" as="geometry" />
        </mxCell>
        <mxCell id="QI-gqBbRlICIVJk3eT7E-48" value="" style="rounded=0;whiteSpace=wrap;html=1;" vertex="1" parent="QI-gqBbRlICIVJk3eT7E-46">
          <mxGeometry x="30" width="30" height="30" as="geometry" />
        </mxCell>
        <mxCell id="QI-gqBbRlICIVJk3eT7E-49" value="" style="rounded=0;whiteSpace=wrap;html=1;" vertex="1" parent="QI-gqBbRlICIVJk3eT7E-46">
          <mxGeometry x="60" width="30" height="30" as="geometry" />
        </mxCell>
        <mxCell id="QI-gqBbRlICIVJk3eT7E-50" value="" style="rounded=0;whiteSpace=wrap;html=1;" vertex="1" parent="QI-gqBbRlICIVJk3eT7E-46">
          <mxGeometry y="30" width="30" height="30" as="geometry" />
        </mxCell>
        <mxCell id="QI-gqBbRlICIVJk3eT7E-51" value="" style="rounded=0;whiteSpace=wrap;html=1;" vertex="1" parent="QI-gqBbRlICIVJk3eT7E-46">
          <mxGeometry x="30" y="30" width="30" height="30" as="geometry" />
        </mxCell>
        <mxCell id="QI-gqBbRlICIVJk3eT7E-52" value="" style="rounded=0;whiteSpace=wrap;html=1;" vertex="1" parent="QI-gqBbRlICIVJk3eT7E-46">
          <mxGeometry x="60" y="30" width="30" height="30" as="geometry" />
        </mxCell>
        <mxCell id="QI-gqBbRlICIVJk3eT7E-53" value="" style="rounded=0;whiteSpace=wrap;html=1;" vertex="1" parent="QI-gqBbRlICIVJk3eT7E-46">
          <mxGeometry y="60" width="30" height="30" as="geometry" />
        </mxCell>
        <mxCell id="QI-gqBbRlICIVJk3eT7E-54" value="" style="rounded=0;whiteSpace=wrap;html=1;" vertex="1" parent="QI-gqBbRlICIVJk3eT7E-46">
          <mxGeometry x="30" y="60" width="30" height="30" as="geometry" />
        </mxCell>
        <mxCell id="QI-gqBbRlICIVJk3eT7E-55" value="" style="rounded=0;whiteSpace=wrap;html=1;" vertex="1" parent="QI-gqBbRlICIVJk3eT7E-46">
          <mxGeometry x="60" y="60" width="30" height="30" as="geometry" />
        </mxCell>
        <mxCell id="QI-gqBbRlICIVJk3eT7E-56" value="" style="ellipse;whiteSpace=wrap;html=1;aspect=fixed;" vertex="1" parent="QI-gqBbRlICIVJk3eT7E-46">
          <mxGeometry x="35" y="35" width="20" height="20" as="geometry" />
        </mxCell>
        <mxCell id="QI-gqBbRlICIVJk3eT7E-57" value="" style="endArrow=none;html=1;rounded=0;entryX=1;entryY=0;entryDx=0;entryDy=0;exitX=1;exitY=1;exitDx=0;exitDy=0;" edge="1" parent="QI-gqBbRlICIVJk3eT7E-46" source="QI-gqBbRlICIVJk3eT7E-49" target="QI-gqBbRlICIVJk3eT7E-48">
          <mxGeometry width="50" height="50" relative="1" as="geometry">
            <mxPoint x="-140" y="-20" as="sourcePoint" />
            <mxPoint x="-90" y="-70" as="targetPoint" />
          </mxGeometry>
        </mxCell>
        <mxCell id="QI-gqBbRlICIVJk3eT7E-58" value="" style="ellipse;whiteSpace=wrap;html=1;aspect=fixed;" vertex="1" parent="QI-gqBbRlICIVJk3eT7E-46">
          <mxGeometry x="5" y="5" width="20" height="20" as="geometry" />
        </mxCell>
        <mxCell id="QI-gqBbRlICIVJk3eT7E-59" value="" style="endArrow=none;html=1;rounded=0;" edge="1" parent="QI-gqBbRlICIVJk3eT7E-43">
          <mxGeometry width="50" height="50" relative="1" as="geometry">
            <mxPoint x="170" y="70" as="sourcePoint" />
            <mxPoint x="200" y="40" as="targetPoint" />
          </mxGeometry>
        </mxCell>
        <mxCell id="QI-gqBbRlICIVJk3eT7E-60" value="" style="group" vertex="1" connectable="0" parent="QI-gqBbRlICIVJk3eT7E-1">
          <mxGeometry x="910" y="400" width="240" height="160" as="geometry" />
        </mxCell>
        <mxCell id="QI-gqBbRlICIVJk3eT7E-61" value="" style="ellipse;whiteSpace=wrap;html=1;aspect=fixed;" vertex="1" parent="QI-gqBbRlICIVJk3eT7E-60">
          <mxGeometry x="80" width="160" height="160" as="geometry" />
        </mxCell>
        <mxCell id="QI-gqBbRlICIVJk3eT7E-62" value="" style="endArrow=classic;html=1;rounded=0;exitX=1;exitY=0.5;exitDx=0;exitDy=0;entryX=0;entryY=0.5;entryDx=0;entryDy=0;" edge="1" parent="QI-gqBbRlICIVJk3eT7E-60" target="QI-gqBbRlICIVJk3eT7E-61">
          <mxGeometry width="50" height="50" relative="1" as="geometry">
            <mxPoint y="80" as="sourcePoint" />
            <mxPoint x="260" y="-30" as="targetPoint" />
          </mxGeometry>
        </mxCell>
        <mxCell id="QI-gqBbRlICIVJk3eT7E-63" value="" style="group" vertex="1" connectable="0" parent="QI-gqBbRlICIVJk3eT7E-60">
          <mxGeometry x="110" y="40" width="90" height="90" as="geometry" />
        </mxCell>
        <mxCell id="QI-gqBbRlICIVJk3eT7E-64" value="" style="rounded=0;whiteSpace=wrap;html=1;" vertex="1" parent="QI-gqBbRlICIVJk3eT7E-63">
          <mxGeometry width="30" height="30" as="geometry" />
        </mxCell>
        <mxCell id="QI-gqBbRlICIVJk3eT7E-65" value="" style="rounded=0;whiteSpace=wrap;html=1;" vertex="1" parent="QI-gqBbRlICIVJk3eT7E-63">
          <mxGeometry x="30" width="30" height="30" as="geometry" />
        </mxCell>
        <mxCell id="QI-gqBbRlICIVJk3eT7E-66" value="" style="rounded=0;whiteSpace=wrap;html=1;" vertex="1" parent="QI-gqBbRlICIVJk3eT7E-63">
          <mxGeometry x="60" width="30" height="30" as="geometry" />
        </mxCell>
        <mxCell id="QI-gqBbRlICIVJk3eT7E-67" value="" style="rounded=0;whiteSpace=wrap;html=1;" vertex="1" parent="QI-gqBbRlICIVJk3eT7E-63">
          <mxGeometry y="30" width="30" height="30" as="geometry" />
        </mxCell>
        <mxCell id="QI-gqBbRlICIVJk3eT7E-68" value="" style="rounded=0;whiteSpace=wrap;html=1;" vertex="1" parent="QI-gqBbRlICIVJk3eT7E-63">
          <mxGeometry x="30" y="30" width="30" height="30" as="geometry" />
        </mxCell>
        <mxCell id="QI-gqBbRlICIVJk3eT7E-69" value="" style="rounded=0;whiteSpace=wrap;html=1;" vertex="1" parent="QI-gqBbRlICIVJk3eT7E-63">
          <mxGeometry x="60" y="30" width="30" height="30" as="geometry" />
        </mxCell>
        <mxCell id="QI-gqBbRlICIVJk3eT7E-70" value="" style="rounded=0;whiteSpace=wrap;html=1;" vertex="1" parent="QI-gqBbRlICIVJk3eT7E-63">
          <mxGeometry y="60" width="30" height="30" as="geometry" />
        </mxCell>
        <mxCell id="QI-gqBbRlICIVJk3eT7E-71" value="" style="rounded=0;whiteSpace=wrap;html=1;" vertex="1" parent="QI-gqBbRlICIVJk3eT7E-63">
          <mxGeometry x="30" y="60" width="30" height="30" as="geometry" />
        </mxCell>
        <mxCell id="QI-gqBbRlICIVJk3eT7E-72" value="" style="rounded=0;whiteSpace=wrap;html=1;" vertex="1" parent="QI-gqBbRlICIVJk3eT7E-63">
          <mxGeometry x="60" y="60" width="30" height="30" as="geometry" />
        </mxCell>
        <mxCell id="QI-gqBbRlICIVJk3eT7E-73" value="" style="ellipse;whiteSpace=wrap;html=1;aspect=fixed;" vertex="1" parent="QI-gqBbRlICIVJk3eT7E-63">
          <mxGeometry x="35" y="35" width="20" height="20" as="geometry" />
        </mxCell>
        <mxCell id="QI-gqBbRlICIVJk3eT7E-74" value="" style="endArrow=none;html=1;rounded=0;entryX=1;entryY=0;entryDx=0;entryDy=0;exitX=1;exitY=1;exitDx=0;exitDy=0;" edge="1" parent="QI-gqBbRlICIVJk3eT7E-63" source="QI-gqBbRlICIVJk3eT7E-66" target="QI-gqBbRlICIVJk3eT7E-65">
          <mxGeometry width="50" height="50" relative="1" as="geometry">
            <mxPoint x="-140" y="-20" as="sourcePoint" />
            <mxPoint x="-90" y="-70" as="targetPoint" />
          </mxGeometry>
        </mxCell>
        <mxCell id="QI-gqBbRlICIVJk3eT7E-75" value="" style="ellipse;whiteSpace=wrap;html=1;aspect=fixed;" vertex="1" parent="QI-gqBbRlICIVJk3eT7E-63">
          <mxGeometry x="5" y="5" width="20" height="20" as="geometry" />
        </mxCell>
        <mxCell id="QI-gqBbRlICIVJk3eT7E-76" value="" style="endArrow=none;html=1;rounded=0;entryX=1;entryY=0;entryDx=0;entryDy=0;exitX=1;exitY=1;exitDx=0;exitDy=0;" edge="1" parent="QI-gqBbRlICIVJk3eT7E-63" source="QI-gqBbRlICIVJk3eT7E-72" target="QI-gqBbRlICIVJk3eT7E-71">
          <mxGeometry width="50" height="50" relative="1" as="geometry">
            <mxPoint x="-310" y="-20" as="sourcePoint" />
            <mxPoint x="-260" y="-70" as="targetPoint" />
          </mxGeometry>
        </mxCell>
        <mxCell id="QI-gqBbRlICIVJk3eT7E-77" value="" style="endArrow=none;html=1;rounded=0;entryX=1;entryY=0;entryDx=0;entryDy=0;exitX=0;exitY=1;exitDx=0;exitDy=0;" edge="1" parent="QI-gqBbRlICIVJk3eT7E-63" source="QI-gqBbRlICIVJk3eT7E-72" target="QI-gqBbRlICIVJk3eT7E-72">
          <mxGeometry width="50" height="50" relative="1" as="geometry">
            <mxPoint x="-310" y="-20" as="sourcePoint" />
            <mxPoint x="-260" y="-70" as="targetPoint" />
          </mxGeometry>
        </mxCell>
        <mxCell id="QI-gqBbRlICIVJk3eT7E-78" value="" style="endArrow=none;html=1;rounded=0;" edge="1" parent="QI-gqBbRlICIVJk3eT7E-60">
          <mxGeometry width="50" height="50" relative="1" as="geometry">
            <mxPoint x="170" y="70" as="sourcePoint" />
            <mxPoint x="200" y="40" as="targetPoint" />
          </mxGeometry>
        </mxCell>
        <mxCell id="QI-gqBbRlICIVJk3eT7E-79" value="" style="group" vertex="1" connectable="0" parent="QI-gqBbRlICIVJk3eT7E-1">
          <mxGeometry x="1155" y="400" width="240" height="160" as="geometry" />
        </mxCell>
        <mxCell id="QI-gqBbRlICIVJk3eT7E-80" value="" style="ellipse;whiteSpace=wrap;html=1;aspect=fixed;" vertex="1" parent="QI-gqBbRlICIVJk3eT7E-79">
          <mxGeometry x="80" width="160" height="160" as="geometry" />
        </mxCell>
        <mxCell id="QI-gqBbRlICIVJk3eT7E-81" value="" style="endArrow=classic;html=1;rounded=0;exitX=1;exitY=0.5;exitDx=0;exitDy=0;entryX=0;entryY=0.5;entryDx=0;entryDy=0;" edge="1" parent="QI-gqBbRlICIVJk3eT7E-79" target="QI-gqBbRlICIVJk3eT7E-80">
          <mxGeometry width="50" height="50" relative="1" as="geometry">
            <mxPoint y="80" as="sourcePoint" />
            <mxPoint x="260" y="-30" as="targetPoint" />
          </mxGeometry>
        </mxCell>
        <mxCell id="QI-gqBbRlICIVJk3eT7E-82" value="" style="group" vertex="1" connectable="0" parent="QI-gqBbRlICIVJk3eT7E-79">
          <mxGeometry x="110" y="40" width="90" height="90" as="geometry" />
        </mxCell>
        <mxCell id="QI-gqBbRlICIVJk3eT7E-83" value="" style="rounded=0;whiteSpace=wrap;html=1;" vertex="1" parent="QI-gqBbRlICIVJk3eT7E-82">
          <mxGeometry width="30" height="30" as="geometry" />
        </mxCell>
        <mxCell id="QI-gqBbRlICIVJk3eT7E-84" value="" style="rounded=0;whiteSpace=wrap;html=1;" vertex="1" parent="QI-gqBbRlICIVJk3eT7E-82">
          <mxGeometry x="30" width="30" height="30" as="geometry" />
        </mxCell>
        <mxCell id="QI-gqBbRlICIVJk3eT7E-85" value="" style="rounded=0;whiteSpace=wrap;html=1;" vertex="1" parent="QI-gqBbRlICIVJk3eT7E-82">
          <mxGeometry x="60" width="30" height="30" as="geometry" />
        </mxCell>
        <mxCell id="QI-gqBbRlICIVJk3eT7E-86" value="" style="rounded=0;whiteSpace=wrap;html=1;" vertex="1" parent="QI-gqBbRlICIVJk3eT7E-82">
          <mxGeometry y="30" width="30" height="30" as="geometry" />
        </mxCell>
        <mxCell id="QI-gqBbRlICIVJk3eT7E-87" value="" style="rounded=0;whiteSpace=wrap;html=1;" vertex="1" parent="QI-gqBbRlICIVJk3eT7E-82">
          <mxGeometry x="30" y="30" width="30" height="30" as="geometry" />
        </mxCell>
        <mxCell id="QI-gqBbRlICIVJk3eT7E-88" value="" style="rounded=0;whiteSpace=wrap;html=1;" vertex="1" parent="QI-gqBbRlICIVJk3eT7E-82">
          <mxGeometry x="60" y="30" width="30" height="30" as="geometry" />
        </mxCell>
        <mxCell id="QI-gqBbRlICIVJk3eT7E-89" value="" style="rounded=0;whiteSpace=wrap;html=1;" vertex="1" parent="QI-gqBbRlICIVJk3eT7E-82">
          <mxGeometry y="60" width="30" height="30" as="geometry" />
        </mxCell>
        <mxCell id="QI-gqBbRlICIVJk3eT7E-90" value="" style="rounded=0;whiteSpace=wrap;html=1;" vertex="1" parent="QI-gqBbRlICIVJk3eT7E-82">
          <mxGeometry x="30" y="60" width="30" height="30" as="geometry" />
        </mxCell>
        <mxCell id="QI-gqBbRlICIVJk3eT7E-91" value="" style="rounded=0;whiteSpace=wrap;html=1;" vertex="1" parent="QI-gqBbRlICIVJk3eT7E-82">
          <mxGeometry x="60" y="60" width="30" height="30" as="geometry" />
        </mxCell>
        <mxCell id="QI-gqBbRlICIVJk3eT7E-92" value="" style="ellipse;whiteSpace=wrap;html=1;aspect=fixed;" vertex="1" parent="QI-gqBbRlICIVJk3eT7E-82">
          <mxGeometry x="35" y="35" width="20" height="20" as="geometry" />
        </mxCell>
        <mxCell id="QI-gqBbRlICIVJk3eT7E-93" value="" style="endArrow=none;html=1;rounded=0;entryX=1;entryY=0;entryDx=0;entryDy=0;exitX=1;exitY=1;exitDx=0;exitDy=0;" edge="1" parent="QI-gqBbRlICIVJk3eT7E-82" source="QI-gqBbRlICIVJk3eT7E-85" target="QI-gqBbRlICIVJk3eT7E-84">
          <mxGeometry width="50" height="50" relative="1" as="geometry">
            <mxPoint x="-140" y="-20" as="sourcePoint" />
            <mxPoint x="-90" y="-70" as="targetPoint" />
          </mxGeometry>
        </mxCell>
        <mxCell id="QI-gqBbRlICIVJk3eT7E-94" value="" style="ellipse;whiteSpace=wrap;html=1;aspect=fixed;" vertex="1" parent="QI-gqBbRlICIVJk3eT7E-82">
          <mxGeometry x="5" y="5" width="20" height="20" as="geometry" />
        </mxCell>
        <mxCell id="QI-gqBbRlICIVJk3eT7E-95" value="" style="endArrow=none;html=1;rounded=0;entryX=1;entryY=0;entryDx=0;entryDy=0;exitX=1;exitY=1;exitDx=0;exitDy=0;" edge="1" parent="QI-gqBbRlICIVJk3eT7E-82" source="QI-gqBbRlICIVJk3eT7E-91" target="QI-gqBbRlICIVJk3eT7E-90">
          <mxGeometry width="50" height="50" relative="1" as="geometry">
            <mxPoint x="-310" y="-20" as="sourcePoint" />
            <mxPoint x="-260" y="-70" as="targetPoint" />
          </mxGeometry>
        </mxCell>
        <mxCell id="QI-gqBbRlICIVJk3eT7E-96" value="" style="endArrow=none;html=1;rounded=0;entryX=1;entryY=0;entryDx=0;entryDy=0;exitX=0;exitY=1;exitDx=0;exitDy=0;" edge="1" parent="QI-gqBbRlICIVJk3eT7E-82" source="QI-gqBbRlICIVJk3eT7E-91" target="QI-gqBbRlICIVJk3eT7E-91">
          <mxGeometry width="50" height="50" relative="1" as="geometry">
            <mxPoint x="-310" y="-20" as="sourcePoint" />
            <mxPoint x="-260" y="-70" as="targetPoint" />
          </mxGeometry>
        </mxCell>
        <mxCell id="QI-gqBbRlICIVJk3eT7E-97" value="" style="ellipse;whiteSpace=wrap;html=1;aspect=fixed;" vertex="1" parent="QI-gqBbRlICIVJk3eT7E-82">
          <mxGeometry x="5" y="35" width="20" height="20" as="geometry" />
        </mxCell>
        <mxCell id="QI-gqBbRlICIVJk3eT7E-98" value="" style="endArrow=none;html=1;rounded=0;" edge="1" parent="QI-gqBbRlICIVJk3eT7E-79">
          <mxGeometry width="50" height="50" relative="1" as="geometry">
            <mxPoint x="170" y="70" as="sourcePoint" />
            <mxPoint x="200" y="40" as="targetPoint" />
          </mxGeometry>
        </mxCell>
        <mxCell id="la-xJFpSomecWgAd1q6K-0" value="" style="group" vertex="1" connectable="0" parent="QI-gqBbRlICIVJk3eT7E-1">
          <mxGeometry x="1400" y="400" width="240" height="160" as="geometry" />
        </mxCell>
        <mxCell id="la-xJFpSomecWgAd1q6K-1" value="" style="ellipse;whiteSpace=wrap;html=1;aspect=fixed;" vertex="1" parent="la-xJFpSomecWgAd1q6K-0">
          <mxGeometry x="80" width="160" height="160" as="geometry" />
        </mxCell>
        <mxCell id="la-xJFpSomecWgAd1q6K-2" value="" style="endArrow=classic;html=1;rounded=0;exitX=1;exitY=0.5;exitDx=0;exitDy=0;entryX=0;entryY=0.5;entryDx=0;entryDy=0;" edge="1" parent="la-xJFpSomecWgAd1q6K-0" target="la-xJFpSomecWgAd1q6K-1">
          <mxGeometry width="50" height="50" relative="1" as="geometry">
            <mxPoint y="80" as="sourcePoint" />
            <mxPoint x="260" y="-30" as="targetPoint" />
          </mxGeometry>
        </mxCell>
        <mxCell id="la-xJFpSomecWgAd1q6K-3" value="" style="group" vertex="1" connectable="0" parent="la-xJFpSomecWgAd1q6K-0">
          <mxGeometry x="110" y="40" width="90" height="90" as="geometry" />
        </mxCell>
        <mxCell id="la-xJFpSomecWgAd1q6K-4" value="" style="rounded=0;whiteSpace=wrap;html=1;" vertex="1" parent="la-xJFpSomecWgAd1q6K-3">
          <mxGeometry width="30" height="30" as="geometry" />
        </mxCell>
        <mxCell id="la-xJFpSomecWgAd1q6K-5" value="" style="rounded=0;whiteSpace=wrap;html=1;" vertex="1" parent="la-xJFpSomecWgAd1q6K-3">
          <mxGeometry x="30" width="30" height="30" as="geometry" />
        </mxCell>
        <mxCell id="la-xJFpSomecWgAd1q6K-6" value="" style="rounded=0;whiteSpace=wrap;html=1;" vertex="1" parent="la-xJFpSomecWgAd1q6K-3">
          <mxGeometry x="60" width="30" height="30" as="geometry" />
        </mxCell>
        <mxCell id="la-xJFpSomecWgAd1q6K-7" value="" style="rounded=0;whiteSpace=wrap;html=1;" vertex="1" parent="la-xJFpSomecWgAd1q6K-3">
          <mxGeometry y="30" width="30" height="30" as="geometry" />
        </mxCell>
        <mxCell id="la-xJFpSomecWgAd1q6K-8" value="" style="rounded=0;whiteSpace=wrap;html=1;" vertex="1" parent="la-xJFpSomecWgAd1q6K-3">
          <mxGeometry x="30" y="30" width="30" height="30" as="geometry" />
        </mxCell>
        <mxCell id="la-xJFpSomecWgAd1q6K-9" value="" style="rounded=0;whiteSpace=wrap;html=1;" vertex="1" parent="la-xJFpSomecWgAd1q6K-3">
          <mxGeometry x="60" y="30" width="30" height="30" as="geometry" />
        </mxCell>
        <mxCell id="la-xJFpSomecWgAd1q6K-10" value="" style="rounded=0;whiteSpace=wrap;html=1;" vertex="1" parent="la-xJFpSomecWgAd1q6K-3">
          <mxGeometry y="60" width="30" height="30" as="geometry" />
        </mxCell>
        <mxCell id="la-xJFpSomecWgAd1q6K-11" value="" style="rounded=0;whiteSpace=wrap;html=1;" vertex="1" parent="la-xJFpSomecWgAd1q6K-3">
          <mxGeometry x="30" y="60" width="30" height="30" as="geometry" />
        </mxCell>
        <mxCell id="la-xJFpSomecWgAd1q6K-12" value="" style="rounded=0;whiteSpace=wrap;html=1;" vertex="1" parent="la-xJFpSomecWgAd1q6K-3">
          <mxGeometry x="60" y="60" width="30" height="30" as="geometry" />
        </mxCell>
        <mxCell id="la-xJFpSomecWgAd1q6K-13" value="" style="ellipse;whiteSpace=wrap;html=1;aspect=fixed;" vertex="1" parent="la-xJFpSomecWgAd1q6K-3">
          <mxGeometry x="35" y="35" width="20" height="20" as="geometry" />
        </mxCell>
        <mxCell id="la-xJFpSomecWgAd1q6K-14" value="" style="endArrow=none;html=1;rounded=0;entryX=1;entryY=0;entryDx=0;entryDy=0;exitX=1;exitY=1;exitDx=0;exitDy=0;" edge="1" parent="la-xJFpSomecWgAd1q6K-3" source="la-xJFpSomecWgAd1q6K-6" target="la-xJFpSomecWgAd1q6K-5">
          <mxGeometry width="50" height="50" relative="1" as="geometry">
            <mxPoint x="-140" y="-20" as="sourcePoint" />
            <mxPoint x="-90" y="-70" as="targetPoint" />
          </mxGeometry>
        </mxCell>
        <mxCell id="la-xJFpSomecWgAd1q6K-15" value="" style="ellipse;whiteSpace=wrap;html=1;aspect=fixed;" vertex="1" parent="la-xJFpSomecWgAd1q6K-3">
          <mxGeometry x="5" y="5" width="20" height="20" as="geometry" />
        </mxCell>
        <mxCell id="la-xJFpSomecWgAd1q6K-16" value="" style="endArrow=none;html=1;rounded=0;entryX=1;entryY=0;entryDx=0;entryDy=0;exitX=1;exitY=1;exitDx=0;exitDy=0;" edge="1" parent="la-xJFpSomecWgAd1q6K-3" source="la-xJFpSomecWgAd1q6K-12" target="la-xJFpSomecWgAd1q6K-11">
          <mxGeometry width="50" height="50" relative="1" as="geometry">
            <mxPoint x="-310" y="-20" as="sourcePoint" />
            <mxPoint x="-260" y="-70" as="targetPoint" />
          </mxGeometry>
        </mxCell>
        <mxCell id="la-xJFpSomecWgAd1q6K-17" value="" style="endArrow=none;html=1;rounded=0;entryX=1;entryY=0;entryDx=0;entryDy=0;exitX=0;exitY=1;exitDx=0;exitDy=0;" edge="1" parent="la-xJFpSomecWgAd1q6K-3" source="la-xJFpSomecWgAd1q6K-12" target="la-xJFpSomecWgAd1q6K-12">
          <mxGeometry width="50" height="50" relative="1" as="geometry">
            <mxPoint x="-310" y="-20" as="sourcePoint" />
            <mxPoint x="-260" y="-70" as="targetPoint" />
          </mxGeometry>
        </mxCell>
        <mxCell id="la-xJFpSomecWgAd1q6K-18" value="" style="ellipse;whiteSpace=wrap;html=1;aspect=fixed;" vertex="1" parent="la-xJFpSomecWgAd1q6K-3">
          <mxGeometry x="5" y="35" width="20" height="20" as="geometry" />
        </mxCell>
        <mxCell id="la-xJFpSomecWgAd1q6K-20" value="" style="endArrow=none;html=1;rounded=0;entryX=1;entryY=0;entryDx=0;entryDy=0;exitX=0;exitY=1;exitDx=0;exitDy=0;" edge="1" parent="la-xJFpSomecWgAd1q6K-3" source="la-xJFpSomecWgAd1q6K-9" target="la-xJFpSomecWgAd1q6K-9">
          <mxGeometry width="50" height="50" relative="1" as="geometry">
            <mxPoint x="-330" y="-20" as="sourcePoint" />
            <mxPoint y="-190" as="targetPoint" />
          </mxGeometry>
        </mxCell>
        <mxCell id="la-xJFpSomecWgAd1q6K-21" value="" style="endArrow=none;html=1;rounded=0;entryX=0;entryY=0;entryDx=0;entryDy=0;exitX=1;exitY=0;exitDx=0;exitDy=0;" edge="1" parent="la-xJFpSomecWgAd1q6K-3" source="la-xJFpSomecWgAd1q6K-12" target="la-xJFpSomecWgAd1q6K-9">
          <mxGeometry width="50" height="50" relative="1" as="geometry">
            <mxPoint x="-330" y="-20" as="sourcePoint" />
            <mxPoint x="-280" y="-70" as="targetPoint" />
          </mxGeometry>
        </mxCell>
        <mxCell id="la-xJFpSomecWgAd1q6K-19" value="" style="endArrow=none;html=1;rounded=0;" edge="1" parent="la-xJFpSomecWgAd1q6K-0">
          <mxGeometry width="50" height="50" relative="1" as="geometry">
            <mxPoint x="170" y="70" as="sourcePoint" />
            <mxPoint x="200" y="40" as="targetPoint" />
          </mxGeometry>
        </mxCell>
        <mxCell id="la-xJFpSomecWgAd1q6K-22" value="&lt;font style=&quot;font-size: 24px;&quot;&gt;X wins&lt;br&gt;&lt;/font&gt;" style="text;html=1;align=center;verticalAlign=middle;whiteSpace=wrap;rounded=0;" vertex="1" parent="QI-gqBbRlICIVJk3eT7E-1">
          <mxGeometry x="1510" y="360" width="90" height="30" as="geometry" />
        </mxCell>
      </root>
    </mxGraphModel>
  </diagram>
</mxfile>
